<?xml version="1.0" standalone="no"?>
<!DOCTYPE svg PUBLIC "-//W3C//DTD SVG 20010904//EN"
 "http://www.w3.org/TR/2001/REC-SVG-20010904/DTD/svg10.dtd">
<svg version="1.0" xmlns="http://www.w3.org/2000/svg"
 width="270.000000pt" height="270.000000pt" viewBox="0 0 270.000000 270.000000"
 preserveAspectRatio="xMidYMid meet">
<metadata>
Created by potrace 1.10, written by Peter Selinger 2001-2011
</metadata>
<g transform="translate(0.000000,270.000000) scale(0.100000,-0.100000)"
fill="#000000" stroke="none">
<path d="M1157 2655 c-570 -93 -1000 -513 -1109 -1080 -20 -106 -17 -370 6
-475 27 -125 53 -204 102 -309 33 -70 47 -92 56 -83 8 8 5 20 -11 47 -11 20
-21 43 -21 51 0 8 -4 12 -10 9 -6 -4 -7 1 -3 11 4 11 2 15 -4 11 -14 -9 -23
15 -16 45 4 19 3 20 -6 8 -9 -12 -10 -9 -5 15 4 20 3 26 -4 17 -12 -17 -22 6
-22 48 0 16 -4 31 -9 34 -16 10 -44 184 -38 239 4 34 3 43 -3 27 -5 -17 -8 2
-9 63 -1 59 2 86 10 82 7 -5 9 14 7 57 -2 43 1 66 10 73 10 8 11 17 2 39 -14
39 -6 44 10 6 7 -16 16 -30 21 -30 5 0 3 10 -5 23 -18 29 -32 89 -15 67 9 -13
10 -13 5 2 -3 10 6 50 21 90 14 40 27 82 28 93 5 31 6 31 16 6 5 -13 12 -21
15 -18 3 3 1 15 -6 26 -13 25 -3 51 12 30 7 -10 7 -7 3 8 -6 22 23 99 47 125
22 22 68 94 68 104 0 5 8 17 18 25 9 9 30 33 45 53 16 20 33 33 39 30 6 -4 8
-3 5 3 -4 6 0 16 8 23 8 7 15 9 15 5 0 -4 11 0 24 8 22 15 24 15 24 -8 0 -16
-5 -22 -15 -18 -8 3 -24 -4 -37 -16 -12 -12 -26 -18 -29 -14 -4 3 -7 1 -7 -5
0 -18 15 -14 35 8 10 11 23 20 28 20 6 0 0 -12 -14 -26 -22 -24 -36 -79 -16
-67 5 3 15 -5 24 -16 12 -18 18 -20 29 -10 12 10 20 7 40 -12 22 -21 23 -25 9
-35 -14 -11 -14 -12 1 -18 9 -3 19 -4 23 -2 4 3 12 -4 18 -14 9 -13 9 -22 -1
-36 -12 -16 -15 -16 -50 11 -20 15 -34 30 -32 33 3 3 12 -1 21 -8 9 -7 18 -10
21 -7 3 3 -9 13 -26 22 -18 9 -29 12 -26 6 4 -6 3 -11 -3 -11 -5 0 -15 8 -20
18 -6 9 -11 13 -11 8 0 -5 -8 1 -19 12 -10 12 -21 19 -25 15 -3 -3 -6 -2 -6 4
0 6 -11 10 -24 9 -13 0 -23 -3 -21 -5 2 -2 -7 -19 -20 -38 -23 -34 -24 -70 -2
-56 6 4 8 0 4 -10 -3 -9 -1 -19 5 -23 7 -4 8 -3 4 4 -11 18 -1 15 40 -13 20
-14 31 -25 25 -25 -7 0 -10 -4 -6 -10 3 -5 11 -7 18 -5 14 5 65 -31 56 -40 -4
-3 -19 -3 -33 1 -21 5 -24 9 -15 20 14 17 -2 19 -19 2 -8 -8 -12 -8 -12 -1 0
6 -18 13 -41 17 -33 5 -39 9 -30 20 9 10 9 16 1 21 -6 4 -9 1 -8 -7 2 -9 -10
-13 -40 -13 -40 -1 -43 1 -39 22 2 12 1 20 -3 18 -6 -4 -12 -22 -26 -83 -1 -8
1 -11 4 -7 7 6 8 10 11 38 1 8 4 8 11 -3 9 -14 -16 -70 -32 -70 -30 0 21 -56
65 -72 15 -6 34 -23 43 -39 16 -32 27 -39 17 -12 -5 14 0 12 23 -7 l30 -25
-23 -12 c-13 -6 -28 -15 -35 -19 -7 -4 -8 -3 -4 4 4 7 3 12 -2 12 -5 0 -12
-14 -16 -31 -6 -31 -7 -31 -51 -25 -57 9 -59 -6 -3 -21 43 -12 43 -12 80 29
35 37 40 40 75 33 21 -3 58 -15 82 -26 62 -27 62 -17 -1 19 -29 17 -89 56
-133 87 -43 30 -85 53 -93 50 -7 -2 -10 -1 -7 4 3 6 -2 14 -11 19 -15 8 -15
12 1 43 31 60 25 60 173 7 137 -48 212 -78 212 -84 0 -2 -8 -16 -18 -32 -16
-27 -19 -28 -47 -16 -40 17 -55 17 -55 -1 0 -8 5 -15 11 -15 6 0 17 -6 24 -12
47 -42 61 -49 52 -24 -3 8 0 19 7 25 10 8 12 4 11 -19 -1 -16 2 -27 7 -24 5 3
6 14 3 24 -4 11 2 26 14 37 13 12 17 23 11 32 -5 9 -3 20 6 29 20 19 30 7 13
-15 -13 -16 -12 -17 3 -4 11 8 16 22 14 37 -5 27 6 31 24 9 9 -10 9 -15 1 -15
-6 0 -11 -5 -11 -10 0 -12 -41 -73 -52 -78 -5 -2 -8 -12 -8 -22 0 -9 -7 -23
-15 -30 -8 -7 -12 -17 -9 -22 6 -10 -16 -72 -23 -64 -3 2 0 14 7 26 13 24 6
56 -15 64 -10 3 -21 -6 -31 -25 -8 -17 -13 -33 -11 -36 6 -5 -8 -63 -25 -105
-12 -32 -29 -34 -108 -16 -50 12 -52 13 -46 42 9 44 18 49 66 32 43 -15 66
-13 55 4 -3 4 -27 13 -55 20 -52 12 -54 12 -88 -32 -11 -14 -11 -22 3 -47 12
-25 24 -32 57 -38 35 -5 39 -8 23 -15 -13 -5 -1 -7 34 -4 39 2 57 8 65 22 19
33 43 108 41 131 -1 12 2 20 7 17 4 -3 8 5 8 17 0 18 3 20 12 11 9 -9 9 -18 0
-37 -6 -13 -9 -31 -6 -38 3 -8 -1 -33 -9 -55 -11 -31 -14 -78 -11 -174 2 -73
5 -144 8 -158 2 -14 5 -34 5 -45 1 -17 3 -17 11 -5 6 10 8 2 4 -25 -4 -30 -3
-36 5 -25 9 13 11 12 11 -5 0 -11 11 -41 25 -66 13 -26 21 -50 17 -54 -4 -5
-1 -5 6 -1 7 4 12 1 12 -8 0 -30 -20 -26 -29 6 l-11 33 3 -33 c2 -17 0 -32 -5
-32 -4 0 -9 10 -9 23 -1 18 -2 18 -6 4 -3 -10 3 -27 13 -38 18 -20 18 -20 36
3 14 19 18 20 18 6 0 -9 -4 -20 -10 -23 -5 -3 -10 -12 -10 -18 0 -7 7 -3 15 7
21 27 29 13 12 -19 -13 -27 -15 -27 -28 -9 -8 11 -24 28 -37 38 -19 17 -22 17
-16 3 6 -16 -4 -22 -33 -18 -7 1 -10 -5 -7 -12 5 -15 -22 -31 -37 -21 -18 11
-8 25 13 19 14 -4 18 -3 11 2 -9 6 -7 12 7 21 16 10 20 10 21 0 0 -7 5 1 10
17 9 30 7 53 -10 97 -5 13 -9 27 -9 32 0 5 -6 12 -14 17 -10 6 -9 11 6 22 10
8 16 20 13 28 -4 10 -6 8 -6 -5 -1 -14 -6 -17 -23 -11 -13 3 -30 6 -38 5 -8 0
-37 -1 -64 -2 l-49 -1 29 -14 c24 -11 25 -12 6 -9 -18 3 -22 1 -18 -10 3 -8 2
-13 -2 -10 -5 3 -21 -2 -37 -10 -23 -12 -30 -12 -38 -2 -6 9 -7 8 -3 -5 5 -17
-6 -22 -49 -19 -16 2 -17 0 -5 -8 13 -9 13 -10 0 -11 -8 -1 -18 -1 -22 0 -5 0
-8 -3 -8 -8 0 -5 -13 -11 -29 -14 -16 -3 -36 -13 -45 -22 -15 -15 -16 -15 -16
1 0 10 -3 15 -6 11 -11 -10 6 -64 28 -87 l21 -22 -23 7 c-15 5 -20 4 -16 -4 4
-6 15 -11 26 -11 20 0 34 -38 24 -65 -4 -10 -2 -15 7 -13 9 2 14 -5 13 -19 0
-12 3 -20 8 -17 4 3 8 12 8 20 0 8 5 12 10 9 9 -5 98 33 150 64 27 16 98 34
109 27 17 -11 13 -24 -11 -36 -22 -11 -22 -10 -4 4 11 9 16 16 10 16 -15 0
-30 -14 -37 -32 -3 -10 -15 -18 -26 -18 -11 0 -23 -5 -26 -10 -4 -6 -11 -7
-17 -4 -7 5 -8 2 -3 -5 5 -9 10 -10 18 -2 6 6 16 11 21 11 6 0 -6 -11 -26 -25
-42 -28 -56 -32 -38 -10 7 8 8 15 3 15 -12 0 -53 -43 -53 -56 0 -5 7 0 15 10
8 11 18 16 22 12 4 -4 -1 -12 -12 -18 -11 -6 -30 -22 -43 -35 l-23 -23 28 -25
c23 -20 26 -26 13 -34 -19 -13 -32 -1 -56 49 -10 22 -23 40 -28 40 -4 0 -6 7
-2 15 6 17 -9 21 -19 5 -9 -15 32 -80 109 -177 491 -609 1412 -660 1962 -109
108 109 165 184 227 296 173 318 211 671 111 1018 -43 149 -170 392 -196 376
-7 -4 -8 -3 -4 5 10 15 -77 124 -167 206 -171 159 -388 272 -623 325 -120 28
-357 35 -477 15z m53 -16 c-11 -7 -3 -7 25 -2 52 10 188 10 245 0 35 -6 42 -6
30 3 -12 10 -12 11 5 5 11 -4 58 -15 105 -25 106 -21 231 -61 224 -72 -3 -4 2
-5 11 -1 11 4 25 -3 39 -20 13 -15 25 -24 28 -21 10 9 58 -8 51 -19 -4 -6 0
-8 9 -4 9 3 24 -2 34 -12 11 -9 42 -30 71 -45 29 -16 50 -33 47 -37 -5 -8 9
-13 28 -10 4 0 4 -7 1 -16 -4 -9 -2 -14 3 -10 6 3 16 2 24 -3 13 -8 12 -12 -5
-25 -20 -16 -20 -16 2 -6 28 14 36 14 27 -1 -5 -7 -2 -9 8 -6 22 9 64 -48 49
-66 -6 -7 -8 -16 -4 -19 3 -4 2 -7 -3 -7 -13 1 -54 36 -54 47 0 5 -11 16 -25
23 -14 7 -25 17 -25 22 0 15 -30 8 -37 -8 -3 -8 -12 -13 -19 -10 -7 3 -16 0
-20 -6 -5 -7 -2 -8 5 -3 8 4 6 -4 -4 -18 -10 -15 -22 -24 -31 -20 -12 4 -12 8
-2 22 7 9 16 18 20 21 4 4 11 21 14 40 5 24 4 31 -4 26 -16 -10 -15 6 1 24 10
12 9 12 -4 2 -14 -10 -18 -10 -23 3 -3 8 -18 20 -33 26 -22 8 -25 12 -13 20
11 7 6 8 -15 3 l-30 -7 24 20 c17 14 21 22 12 27 -7 5 -10 2 -9 -6 2 -9 -7
-12 -27 -11 -23 2 -27 0 -15 -8 12 -8 11 -9 -5 -7 -23 4 -45 -14 -74 -62 -22
-36 -30 -25 -9 13 14 26 11 89 -5 99 -19 11 -28 -2 -16 -24 8 -15 8 -31 0 -59
-6 -21 -9 -50 -5 -64 4 -18 2 -27 -11 -31 -9 -4 -14 -13 -11 -20 7 -17 -10
-28 -20 -13 -5 8 -3 9 6 4 8 -5 11 -4 6 3 -4 6 -13 9 -20 6 -8 -3 -16 -1 -19
4 -3 4 10 14 29 21 18 7 34 16 34 20 0 7 -70 36 -82 33 -4 -1 0 14 8 33 16 39
18 55 6 55 -10 0 -102 -231 -102 -255 0 -29 18 -6 35 45 9 28 18 50 20 50 2 0
16 -5 32 -12 15 -6 31 -11 36 -10 11 3 9 -3 -23 -72 -17 -35 -36 -66 -43 -69
-17 -6 -97 21 -119 41 -26 23 -22 44 40 197 52 128 59 140 84 143 15 2 41 -4
58 -13 33 -17 60 -14 60 6 0 6 -7 8 -16 5 -13 -5 -14 -3 -6 6 8 10 -6 13 -68
13 -43 0 -77 -1 -75 -3 2 -2 -5 -20 -15 -39 -10 -19 -16 -41 -13 -49 6 -17
-13 -19 -21 -1 -3 6 -3 -3 0 -20 6 -38 -2 -43 -17 -10 -9 20 -9 20 -4 -5 7
-35 -14 -120 -27 -112 -6 4 -8 -3 -3 -17 l6 -24 -21 25 -21 25 13 -28 c9 -22
9 -33 0 -48 -15 -23 -16 -40 -1 -19 9 12 10 10 6 -8 -3 -13 -3 -21 1 -18 3 4
11 -3 18 -15 11 -22 71 -50 112 -52 12 -1 22 -7 22 -16 0 -11 4 -10 15 5 12
16 14 17 15 3 0 -9 7 -19 15 -23 22 -8 18 -23 -7 -30 -14 -3 -27 0 -34 8 -5 8
-23 18 -38 22 -21 5 -25 9 -14 16 8 6 2 7 -19 3 -17 -3 -34 -2 -37 3 -3 6 4 8
16 6 21 -4 21 -4 3 4 -11 5 -25 7 -31 5 -18 -7 -64 16 -64 31 0 8 -4 17 -9 21
-6 3 -8 -6 -5 -20 4 -24 -5 -33 -19 -18 -15 14 -144 21 -214 11 -24 -3 -43 -2
-43 2 0 5 14 8 30 8 17 -1 33 2 36 5 12 11 -62 4 -87 -9 -15 -7 -30 -10 -34
-6 -5 4 -5 2 -2 -4 5 -9 -26 -22 -58 -24 -3 0 -21 -9 -41 -19 -20 -11 -42 -17
-50 -14 -8 3 -14 1 -14 -4 0 -19 -45 -32 -64 -18 -22 17 -6 27 31 20 20 -4 23
-3 9 3 -16 7 -10 12 34 34 29 14 63 25 76 23 13 -1 24 2 24 7 0 5 9 4 20 -2
12 -6 20 -7 20 -1 0 5 -6 12 -12 14 -7 3 4 5 24 4 20 0 43 5 50 10 9 7 34 8
78 2 36 -5 77 -7 93 -3 16 3 27 1 27 -5 0 -6 12 -11 28 -10 l27 1 -25 8 c-24
8 -24 11 3 14 7 0 13 19 15 44 3 38 1 42 -20 43 -19 1 -18 3 7 9 22 6 25 8 10
10 -11 1 -27 1 -34 0 -12 -1 -13 1 -2 14 7 8 10 20 6 26 -4 7 2 14 14 17 12 3
21 12 21 20 0 8 4 12 9 9 5 -4 7 3 4 14 -4 15 0 20 13 21 17 1 17 2 1 6 -9 2
-15 9 -12 14 4 5 -5 14 -19 21 -30 13 -34 28 -8 29 15 0 14 1 -3 8 -17 7 -17
8 8 15 24 6 27 11 27 46 0 25 -5 40 -12 41 -47 2 -84 11 -87 20 -2 7 -7 6 -12
-2 -8 -12 -11 -12 -18 1 -15 22 -33 -32 -38 -110 -2 -36 -6 -80 -7 -98 -3 -39
-20 -61 -30 -37 -3 9 -2 13 4 10 6 -4 5 5 -2 19 -8 19 -8 40 -1 78 22 110 12
145 -34 127 -18 -6 -30 -6 -39 2 -8 7 -17 9 -21 5 -3 -3 0 -6 7 -6 32 0 -4
-13 -46 -17 -35 -3 -44 -1 -39 9 4 7 -3 2 -15 -12 -18 -20 -21 -32 -16 -65 11
-71 10 -115 -3 -128 -10 -10 -11 -9 -6 6 4 9 3 17 -3 17 -8 0 -18 20 -27 55
-1 6 -3 15 -4 20 -2 6 -3 26 -3 45 0 29 -1 30 -5 8 -2 -16 -9 -28 -14 -28 -6
0 -7 5 -4 10 3 6 -1 10 -10 10 -9 0 -14 -3 -12 -7 3 -5 19 -38 36 -75 17 -38
44 -96 61 -131 16 -35 34 -76 40 -91 6 -16 12 -27 14 -25 4 3 -18 190 -38 329
-5 35 -5 35 33 36 l39 2 10 -77 9 -76 2 76 1 77 40 10 c22 5 40 6 40 2 0 -5
-5 -43 -11 -86 -10 -74 -9 -80 23 -177 l33 -99 6 53 c4 30 10 112 14 182 l7
128 59 -4 c68 -4 73 -8 64 -37 -5 -14 -12 -19 -25 -15 -13 4 -19 -2 -24 -26
-11 -58 -8 -69 20 -69 21 0 25 -4 22 -22 -2 -15 -11 -24 -24 -26 -25 -4 -34
-27 -34 -89 0 -39 2 -43 24 -43 19 0 22 -4 19 -24 -5 -23 -7 -24 -102 -23
l-98 2 -27 90 c-27 92 -28 85 -10 -52 l7 -53 -34 0 c-19 -1 -52 -7 -74 -15
-22 -8 -40 -15 -41 -15 0 0 -6 18 -13 40 -8 29 -16 38 -27 33 -11 -4 -13 -13
-9 -27 19 -60 18 -66 -6 -66 -13 0 -49 -16 -79 -35 -30 -19 -57 -35 -61 -35
-7 0 -92 149 -154 268 -18 35 -33 52 -46 52 -18 0 -19 -1 -3 -25 9 -14 21 -25
26 -25 6 0 4 -8 -3 -17 -8 -9 -9 -14 -3 -10 7 4 14 -7 18 -32 3 -21 13 -44 21
-51 19 -16 19 -1 0 24 -8 11 -15 27 -15 35 0 17 41 -45 44 -67 1 -7 9 -21 17
-30 9 -10 13 -24 11 -31 -3 -9 0 -11 8 -6 10 6 12 4 7 -9 -5 -11 -3 -15 5 -10
8 5 9 2 5 -10 -4 -10 -3 -15 3 -11 13 8 13 -11 0 -34 -7 -15 -5 -18 13 -18 42
-1 46 -3 40 -20 -5 -13 -1 -12 17 5 26 24 40 28 40 11 0 -5 4 -8 9 -4 5 3 12
1 15 -4 3 -5 -3 -11 -14 -14 -11 -3 -20 -1 -20 4 0 5 -5 9 -11 9 -6 0 -9 -6
-6 -14 7 -17 -47 -58 -79 -60 -14 0 -19 -5 -14 -10 6 -6 3 -14 -7 -22 -21 -14
-48 -7 -34 10 17 20 17 69 1 73 -13 4 -13 3 0 -6 8 -5 12 -12 9 -15 -6 -7 -89
69 -89 81 0 4 5 1 11 -7 9 -13 10 -13 6 0 -2 8 -11 14 -20 12 -22 -4 -31 16
-16 36 11 14 11 15 -1 5 -17 -15 -34 -17 -25 -3 3 6 -1 10 -10 10 -10 0 -13 5
-9 12 4 7 3 8 -4 4 -16 -10 -15 6 1 24 10 12 9 12 -6 0 -29 -22 -46 3 -21 32
l19 23 -21 -17 c-27 -23 -42 -23 -21 0 15 17 15 20 -12 49 l-28 31 -33 -26
c-19 -15 -31 -21 -26 -14 14 23 -4 32 -30 16 -48 -32 -14 10 58 70 61 51 73
58 89 48 10 -7 22 -12 26 -12 5 0 0 5 -9 11 -22 12 -24 33 -2 25 10 -4 13 -2
8 6 -5 8 -1 9 12 4 10 -4 15 -4 12 0 -12 11 45 51 110 77 34 14 69 33 78 42 9
9 23 14 30 11 7 -3 16 -1 19 4 3 5 13 6 22 3 10 -4 14 -2 10 4 -4 6 4 13 18
15 13 3 22 1 19 -3 -3 -5 12 -8 33 -8 37 1 37 2 8 9 -34 8 -29 10 52 33 29 8
55 12 58 9 9 -10 35 -11 35 -2 0 5 -6 11 -12 13 -7 3 3 3 23 0 21 -3 39 -1 43
6 4 6 13 11 19 11 7 0 6 -4 -3 -11z m808 -252 c29 -19 42 -36 42 -51 0 -13
-29 -69 -65 -125 -114 -180 -118 -182 -199 -130 -44 27 -48 33 -42 59 7 35
151 266 174 279 19 11 34 5 90 -32z m-907 -10 c-10 -9 -11 -8 -5 6 3 10 9 15
12 12 3 -3 0 -11 -7 -18z m656 -40 c-5 7 0 9 14 6 23 -6 15 -17 -18 -28 -13
-3 -23 -2 -23 4 0 5 -3 18 -7 28 -6 16 -4 16 17 -2 13 -11 20 -15 17 -8z m407
-63 l29 -26 -118 -118 c-66 -66 -116 -123 -111 -127 4 -4 59 45 123 110 l117
117 28 -27 29 -28 -124 -122 c-71 -70 -133 -123 -143 -123 -32 1 -104 76 -104
109 0 12 226 257 240 259 3 1 18 -10 34 -24z m-1610 -23 c17 -18 17 -20 -1
-30 -16 -9 -4 -24 99 -128 l116 -118 -30 -24 -30 -24 -114 114 c-95 96 -116
113 -127 102 -11 -11 -16 -10 -31 6 -16 18 -15 21 36 70 29 28 56 51 59 51 3
0 14 -9 23 -19z m1752 -26 c20 -18 24 -29 17 -36 -12 -12 -33 -4 -33 12 0 6 5
7 12 3 7 -4 8 -3 4 4 -4 6 -13 9 -22 5 -12 -4 -10 -11 11 -39 28 -36 20 -50
-22 -39 -19 4 -23 9 -15 17 8 8 16 7 29 -3 11 -9 9 -3 -7 20 -23 33 -23 34 -5
47 17 13 17 14 1 14 -9 0 -14 5 -11 10 9 14 11 13 41 -15z m-278 4 c-4 -14
-42 -59 -46 -54 -4 3 39 65 45 65 2 0 2 -5 1 -11z m-655 -46 c-7 -2 -19 -2
-25 0 -7 3 -2 5 12 5 14 0 19 -2 13 -5z m1004 -78 c-10 -20 -16 -24 -22 -15
-4 7 -2 16 5 20 9 5 9 9 1 14 -6 4 -9 11 -7 15 3 4 0 13 -6 21 -8 12 -9 12 -4
-2 3 -11 0 -18 -7 -19 -9 0 -9 -2 1 -6 6 -2 12 -10 12 -16 0 -17 -23 9 -27 30
-6 42 7 47 38 16 29 -29 30 -32 16 -58z m-1162 35 c-3 -5 -12 -10 -18 -10 -7
0 -6 4 3 10 19 12 23 12 15 0z m267 -24 c316 -61 560 -296 629 -606 19 -86 16
-257 -5 -339 -38 -147 -109 -272 -213 -374 -407 -399 -1089 -246 -1282 290
-102 281 -38 582 173 801 182 191 444 276 698 228z m792 6 c2 -4 -4 -13 -14
-20 -14 -9 -19 -8 -23 2 -3 8 -3 17 0 20 9 9 31 7 37 -2z m20 -122 c-32 -33
-63 -59 -69 -56 -6 2 -11 -4 -11 -14 0 -13 13 -8 61 26 33 24 70 50 83 59 12
9 22 21 22 27 0 6 -10 3 -22 -8 -23 -19 -23 -19 -7 1 8 11 21 33 28 49 9 22
15 26 23 18 9 -9 7 -17 -8 -34 -17 -21 -17 -21 9 1 15 14 27 23 28 20 7 -41
33 -91 42 -82 4 3 7 -1 7 -10 0 -9 -3 -16 -7 -16 -5 1 -15 1 -23 0 -13 -1 -13
-3 -1 -10 9 -6 22 -6 33 0 14 7 16 6 12 -6 -9 -23 -45 -39 -79 -37 -21 2 -26
0 -17 -6 11 -8 11 -10 -2 -15 -29 -11 -26 11 4 33 24 17 29 27 24 43 -4 12
-11 24 -15 25 -5 2 -9 11 -9 20 0 12 -3 13 -11 5 -9 -9 -8 -19 6 -39 10 -16
14 -29 9 -31 -6 -2 -76 -48 -157 -103 -81 -55 -149 -100 -150 -100 -1 0 -11
16 -21 35 -11 19 -25 35 -33 35 -16 0 -4 -29 21 -49 8 -7 13 -18 10 -26 -3 -7
0 -16 7 -21 8 -5 10 -3 4 7 -6 11 -5 12 6 2 16 -16 33 -17 23 -1 -4 7 -3 8 5
4 6 -4 69 17 141 48 71 31 134 56 139 56 6 0 11 7 11 15 0 17 -16 20 -26 4 -3
-6 -17 -9 -31 -6 -18 3 -23 1 -19 -10 3 -8 0 -13 -7 -12 -11 2 -85 -29 -97
-41 -3 -3 -16 -6 -30 -7 -21 -2 -22 -1 -8 8 10 5 20 10 22 10 3 0 19 13 37 30
32 30 61 41 39 14 -9 -10 -9 -15 -1 -15 10 0 15 14 12 34 -1 5 17 6 41 3 37
-5 39 -5 15 4 -25 10 -29 29 -6 29 6 0 8 -4 4 -9 -9 -16 28 -17 58 -3 16 8 30
12 31 11 23 -28 69 -166 49 -146 -3 4 -12 2 -19 -4 -9 -8 -16 -5 -24 11 -8 14
-15 18 -23 12 -7 -5 -41 -21 -77 -35 -36 -14 -95 -40 -132 -56 -37 -17 -69
-31 -72 -31 -2 0 -9 14 -15 30 -5 17 -17 30 -25 30 -23 0 -20 -28 4 -42 11 -7
20 -18 20 -25 0 -7 14 -10 42 -6 48 5 61 11 53 23 -3 5 15 8 41 6 41 -2 44 -1
28 11 -17 12 -17 13 3 13 12 0 25 5 28 10 3 6 17 10 30 10 31 0 56 10 50 20
-3 4 11 4 29 0 19 -4 39 -4 45 1 6 5 5 2 -1 -6 -16 -17 -93 -50 -83 -36 3 6 1
11 -4 11 -6 0 -11 -7 -11 -15 0 -8 -6 -15 -14 -15 -8 0 -17 -6 -19 -12 -4 -10
-8 -9 -17 2 -10 13 -11 13 -6 -2 4 -13 -4 -20 -32 -28 -20 -5 -38 -6 -40 -1
-1 4 -14 6 -28 3 -19 -3 -22 -7 -12 -13 9 -6 5 -9 -14 -9 -32 0 -64 -28 -49
-43 5 -5 7 -16 4 -25 -4 -10 -2 -13 6 -8 8 6 10 1 6 -16 -4 -17 -2 -25 7 -25
7 0 18 -2 23 -3 6 -1 27 -2 48 -1 26 1 36 5 31 13 -5 8 -2 9 9 5 40 -16 52
-19 38 -9 -19 14 18 20 149 27 76 3 106 1 112 -8 12 -19 -3 65 -16 93 -8 17
-9 37 -4 59 5 18 7 36 4 39 -3 3 -6 -2 -6 -12 0 -9 -4 -15 -10 -11 -5 3 -7 12
-3 20 3 8 0 15 -7 15 -6 0 -9 4 -6 9 4 5 0 12 -6 14 -10 4 -9 8 2 16 8 6 10
11 4 11 -10 0 -54 90 -54 111 0 5 7 6 15 3 8 -4 15 -2 15 4 0 5 -10 9 -22 8
-11 0 -23 6 -26 14 -3 8 -1 12 3 8 4 -4 16 3 27 15 13 15 18 17 15 6 -3 -9 3
-31 14 -48 13 -22 17 -40 12 -59 l-7 -27 -7 30 c-7 30 -7 30 -8 3 -1 -33 18
-48 26 -19 3 12 9 21 14 21 5 0 6 -6 3 -14 -3 -7 4 -31 16 -52 11 -22 23 -56
26 -76 4 -21 12 -38 18 -38 6 0 5 -4 -3 -9 -16 -11 -25 -98 -10 -107 5 -3 7
-10 4 -15 -4 -5 2 -17 11 -27 17 -16 18 -16 10 3 -24 63 -30 105 -17 117 11
11 12 7 6 -22 -4 -25 -3 -31 4 -20 8 12 10 11 9 -5 0 -11 4 -49 11 -85 14 -80
14 -83 0 -74 -8 5 -8 1 0 -14 16 -29 14 -98 -4 -132 -14 -26 -14 -29 0 -24 11
5 15 -1 14 -22 0 -26 -1 -27 -10 -9 -8 17 -9 16 -6 -7 2 -15 1 -26 -2 -23 -4
2 -13 -1 -21 -6 -12 -8 -11 -9 5 -7 18 3 20 -2 17 -36 -2 -22 -8 -48 -13 -57
-5 -10 -9 -32 -9 -49 0 -19 -4 -29 -10 -25 -7 4 -9 -2 -4 -19 3 -15 2 -26 -4
-26 -5 0 -12 -16 -15 -34 -3 -19 -12 -50 -20 -68 -8 -18 -21 -48 -28 -65 -8
-18 -18 -33 -23 -33 -4 0 -5 -7 -2 -16 3 -8 2 -12 -3 -9 -5 3 -15 -11 -22 -30
-7 -19 -16 -35 -20 -35 -4 0 -14 -18 -23 -40 -17 -42 -28 -54 -19 -20 3 11 1
20 -5 20 -9 0 -25 36 -23 52 0 4 -5 5 -12 2 -7 -2 -24 7 -36 20 -13 14 -27 23
-31 21 -4 -2 -6 7 -4 20 1 14 -2 23 -7 19 -5 -3 -7 -10 -4 -15 12 -19 -10 -8
-62 32 -29 23 -51 44 -48 47 2 3 11 -1 20 -8 8 -7 15 -8 15 -2 0 13 -26 23
-45 16 -8 -4 -15 -1 -15 6 0 6 -5 8 -10 5 -6 -3 -13 1 -16 9 -3 9 -11 16 -17
16 -6 0 -19 8 -30 18 -19 16 -20 16 -9 -4 6 -12 24 -29 39 -39 15 -10 33 -23
39 -29 6 -6 59 -47 117 -90 59 -44 107 -83 107 -87 0 -4 -8 -17 -19 -30 -18
-22 -19 -22 -57 -5 -21 10 -61 29 -87 43 -38 19 -51 22 -60 13 -7 -6 -7 -11
-2 -10 21 4 32 -1 98 -49 l68 -49 -25 -28 c-17 -19 -28 -25 -33 -18 -5 6 -70
57 -145 114 -76 56 -138 105 -138 109 0 3 9 17 19 30 l19 25 66 -33 c37 -18
64 -35 62 -39 -2 -4 10 -8 26 -9 17 -1 29 -1 27 1 -26 25 -155 103 -157 96 -2
-6 -8 -8 -13 -5 -4 3 6 18 23 34 18 16 28 33 24 39 -5 9 -10 9 -20 -1 -8 -6
-11 -16 -8 -21 3 -5 -2 -7 -11 -3 -11 4 -14 2 -10 -9 3 -7 0 -14 -6 -14 -11 0
-14 11 -12 40 0 10 -1 11 -5 2 -3 -6 -10 -9 -15 -6 -5 3 -1 15 10 27 11 12 30
33 41 47 12 14 19 20 16 13 -4 -6 -2 -14 3 -17 5 -4 8 6 6 21 -4 36 23 103 41
103 9 0 14 11 14 33 0 17 5 48 11 67 13 44 20 272 9 311 -6 20 -5 29 3 29 8 0
8 3 2 8 -9 6 -35 56 -35 67 0 11 19 4 23 -7 2 -7 2 -2 0 10 -2 13 1 30 8 38 9
11 9 14 0 14 -6 0 -16 -10 -21 -22 l-9 -23 0 23 c-1 13 -5 21 -10 18 -5 -3
-11 3 -14 14 -3 11 -1 18 4 14 5 -3 9 0 9 5 0 6 -5 11 -11 11 -5 0 -8 4 -5 9
3 5 -1 11 -9 15 -8 3 -15 12 -15 21 0 9 -9 25 -20 37 -11 12 -20 32 -20 44 0
13 -4 26 -10 29 -6 4 -7 -1 -3 -12 4 -10 -6 -2 -22 17 -17 19 -39 44 -50 54
-17 16 -17 18 -2 13 30 -11 18 8 -13 20 -23 9 -28 16 -23 29 5 13 3 16 -10 11
-20 -7 -22 4 -5 21 9 9 9 12 1 12 -7 0 -15 -4 -18 -10 -8 -13 -25 -13 -25 1 0
5 4 8 9 5 5 -3 12 1 15 10 5 13 9 14 21 4 8 -7 15 -18 15 -25 0 -7 7 -16 16
-19 9 -4 14 -13 10 -22 -3 -8 -2 -12 3 -9 19 11 57 -17 67 -48 7 -25 16 -33
43 -38 31 -7 38 -3 105 64 73 72 58 69 -46 -9 l-57 -43 -23 31 c-12 18 -17 33
-12 35 6 2 77 48 159 103 l149 99 19 -29 19 -30 -58 -60z m-72 92 c-7 -2 -10
-8 -7 -13 4 -5 -2 -6 -11 -2 -11 4 -15 3 -10 -5 3 -6 2 -13 -3 -16 -13 -9 -8
19 8 38 7 9 18 13 24 9 8 -5 7 -8 -1 -11z m-1824 -29 c86 -63 147 -108 152
-113 3 -3 20 -16 39 -29 27 -19 35 -21 42 -10 12 19 11 26 -2 34 -6 4 -8 13
-5 21 3 7 0 16 -6 20 -6 4 -8 3 -4 -4 3 -6 1 -14 -5 -18 -8 -4 -7 -9 2 -15 7
-4 10 -11 7 -15 -4 -3 -14 1 -22 9 -9 8 -21 17 -28 20 -11 4 -11 9 0 26 10 18
10 25 -4 46 -10 15 -22 22 -32 18 -14 -4 -15 -3 -2 6 22 15 78 -43 60 -64 -6
-8 -10 -20 -7 -27 4 -9 6 -7 6 3 1 27 29 30 45 7 8 -12 13 -25 10 -29 -2 -5 7
-16 21 -25 l25 -17 -25 -33 c-15 -19 -23 -39 -19 -46 4 -6 3 -8 -4 -4 -6 3
-14 2 -17 -4 -8 -12 -28 -1 -110 60 -27 20 -83 61 -122 90 -40 29 -73 55 -73
57 0 7 34 63 38 63 2 0 20 -12 40 -27z m1428 -56 l-1 -24 -41 31 c-35 27 -39
33 -25 43 23 16 69 -18 67 -50z m37 7 c-8 -22 -32 -17 -26 5 3 11 11 17 18 14
8 -2 11 -11 8 -19z m-1083 -94 c0 -4 -9 -10 -20 -13 -11 -3 -20 -11 -20 -19 0
-10 3 -9 10 2 6 9 10 10 10 3 0 -22 -23 -26 -37 -8 -10 15 -13 15 -13 4 0 -8
6 -21 13 -28 10 -11 10 -13 0 -7 -8 4 -13 1 -13 -8 0 -21 -16 -21 -24 0 -3 9
-2 12 5 9 6 -4 10 -1 8 6 -4 31 2 49 15 49 7 0 19 6 26 14 11 15 40 11 40 -4z
m-265 -68 c-3 -3 -11 0 -18 7 -9 10 -8 11 6 5 10 -3 15 -9 12 -12z m110 -92
c3 -5 1 -10 -4 -10 -6 0 -11 5 -11 10 0 6 2 10 4 10 3 0 8 -4 11 -10z m1765
-20 c0 -5 -5 -10 -11 -10 -5 0 -7 5 -4 10 3 6 8 10 11 10 2 0 4 -4 4 -10z
m143 -47 c6 -31 5 -32 -49 -52 -30 -12 -58 -21 -62 -21 -5 0 -17 -7 -28 -16
-19 -15 -19 -15 1 -6 11 5 43 13 70 16 28 4 57 9 66 12 11 3 19 -6 26 -30 6
-19 8 -37 5 -40 -3 -3 -56 -6 -118 -6 -102 0 -139 -6 -241 -36 -20 -6 -23 -3
-23 23 0 16 -5 34 -12 41 -13 13 -11 14 80 33 77 16 258 109 254 130 -3 12 -1
12 11 -1 8 -8 17 -29 20 -47z m-413 -3 c0 -5 -2 -10 -4 -10 -3 0 -8 5 -11 10
-3 6 -1 10 4 10 6 0 11 -4 11 -10z m-2073 -212 c-3 -8 -6 -5 -6 6 -1 11 2 17
5 13 3 -3 4 -12 1 -19z m486 -454 c16 -36 27 -73 25 -82 -4 -24 -107 -74 -140
-69 -18 2 -28 -1 -28 -10 0 -12 -89 -62 -137 -77 -19 -6 -25 -2 -36 26 l-14
33 68 32 c38 17 69 37 69 42 0 15 -1 15 -75 -21 -69 -32 -73 -32 -93 15 -11
26 -10 28 16 38 15 5 52 21 82 35 159 72 225 102 230 103 3 0 18 -29 33 -65z
m77 -145 c0 -5 15 -28 32 -50 31 -39 32 -41 14 -55 -15 -11 -17 -16 -7 -28 13
-15 2 -50 -17 -58 -5 -1 -26 -25 -47 -53 -27 -36 -36 -43 -31 -25 4 15 -2 9
-13 -14 -27 -51 -41 -67 -54 -59 -6 4 -7 1 -2 -6 4 -8 -1 -21 -14 -32 -12 -11
-21 -23 -22 -27 -5 -47 -5 -52 7 -48 17 7 59 -40 44 -49 -13 -8 -70 42 -70 61
0 6 -11 15 -25 18 -14 4 -23 11 -20 16 3 5 1 18 -5 29 -16 31 -3 48 35 46 26
-2 32 1 28 12 -5 12 -7 12 -14 2 -4 -8 -11 -10 -14 -7 -4 4 -1 16 7 27 15 21
15 21 28 -4 7 -14 18 -25 23 -25 5 0 4 7 -3 15 -6 8 -9 19 -5 25 4 6 3 10 -2
9 -13 -3 -43 12 -43 22 0 5 9 9 21 9 13 0 18 -4 13 -12 -5 -7 -3 -8 5 -3 9 5
9 11 3 17 -7 7 -5 16 6 29 15 18 16 18 30 -2 8 -11 11 -23 7 -27 -3 -3 -10 0
-15 8 -6 10 -10 11 -10 3 0 -7 9 -17 19 -23 25 -13 41 -13 21 0 -9 6 -11 10
-3 10 7 0 10 6 8 13 -5 13 46 47 71 47 9 0 12 5 9 10 -4 6 -10 8 -15 5 -10 -6
-35 23 -26 32 4 4 12 1 17 -7 9 -13 10 -12 6 2 -7 20 12 29 36 16 16 -8 17 -7
8 11 -18 32 -26 32 -64 2 -33 -26 -35 -29 -20 -44 15 -15 14 -18 -8 -36 -24
-19 -24 -19 -31 0 -10 26 -15 24 -71 -17 -45 -33 -48 -37 -33 -53 15 -16 15
-19 -5 -37 -23 -20 -20 -23 -79 57 l-20 27 145 108 c80 60 145 112 145 116 0
5 5 8 10 8 6 0 10 -5 10 -11z m89 -1 c-3 -25 1 -38 12 -38 5 0 7 5 3 12 -4 7
-3 8 4 4 19 -11 14 -26 -10 -35 -15 -5 -27 -4 -36 5 -13 13 -10 25 13 51 13
16 16 16 14 1z m1297 -30 c4 -7 4 -10 -1 -6 -4 4 -14 3 -22 -3 -13 -11 -19 2
-6 14 10 11 21 8 29 -5z m14 -32 c0 -7 -6 -21 -14 -31 -12 -17 -16 -17 -30 -6
-9 8 -14 21 -11 29 4 12 3 13 -10 2 -14 -11 -13 -14 4 -26 14 -10 19 -24 17
-49 -2 -20 1 -38 5 -41 5 -3 9 -10 9 -16 0 -6 -9 -3 -19 6 -11 10 -28 19 -38
21 -10 1 -17 8 -15 15 1 6 -2 9 -7 6 -11 -7 -41 3 -41 15 0 4 13 6 30 4 26 -3
29 -1 21 14 -7 13 -4 24 14 45 13 15 28 25 34 22 5 -4 12 -2 16 3 7 13 35 2
35 -13z m-1255 -7 c0 -8 -10 -15 -23 -15 -28 -2 -55 -24 -29 -24 9 0 17 5 17
11 0 5 4 7 10 4 5 -3 19 -1 30 5 11 6 19 7 18 2 -2 -5 12 -21 30 -36 17 -15
29 -33 25 -38 -3 -7 -1 -8 5 -4 13 7 72 -23 72 -36 0 -4 7 -8 15 -8 8 0 15 -4
15 -10 0 -15 -16 -12 -30 5 -7 8 -17 15 -23 15 -6 0 -1 -10 11 -22 18 -18 26
-20 40 -12 14 9 24 7 50 -11 17 -12 29 -24 26 -27 -2 -3 2 -8 11 -12 9 -3 13
-2 10 4 -8 12 -9 13 45 -4 31 -10 38 -15 21 -15 -48 -2 -12 -11 60 -16 41 -3
90 -7 109 -9 110 -13 276 7 342 40 15 8 35 14 45 13 14 0 12 -3 -6 -10 -13 -5
-21 -12 -18 -15 10 -10 46 16 41 30 -3 8 11 19 40 30 24 9 65 33 90 52 27 20
51 31 60 28 9 -3 13 -10 10 -15 -3 -5 2 -6 10 -3 24 9 18 -9 -9 -29 -14 -10
-31 -15 -38 -11 -6 4 -9 4 -5 -1 4 -4 3 -14 -2 -21 -14 -16 -6 -89 8 -89 7 0
21 -18 32 -40 23 -45 23 -45 11 -45 -5 0 -15 15 -22 34 -8 22 -19 34 -30 33
-10 -1 -15 -7 -12 -15 4 -9 8 -10 13 -3 3 6 14 -4 23 -25 11 -22 23 -34 31
-31 15 6 40 -39 31 -54 -3 -5 1 -6 9 -3 10 4 16 1 16 -9 0 -8 3 -17 8 -19 15
-7 53 -89 46 -101 -5 -8 -2 -7 9 2 10 8 28 11 45 8 31 -6 61 6 43 17 -13 8 8
46 25 46 6 0 17 7 24 15 9 11 16 13 24 5 5 -5 15 -10 21 -10 5 0 3 5 -5 10
-13 9 -13 11 0 20 8 5 15 21 15 35 1 24 -2 27 -27 29 -7 1 -15 10 -18 21 -3
11 -11 21 -18 21 -25 3 -27 5 -13 13 10 6 5 12 -18 22 -24 10 -31 19 -27 33 4
14 2 16 -7 7 -15 -15 -78 45 -69 67 4 11 1 14 -10 9 -10 -3 -26 6 -44 25 -28
30 -17 30 18 1 20 -18 35 1 18 22 -33 39 22 2 74 -50 16 -16 26 -24 21 -16 -6
10 -4 12 6 5 14 -8 85 -62 110 -82 56 -47 79 -62 91 -62 17 0 61 74 50 85 -4
4 3 5 16 2 18 -4 22 -2 18 10 -5 11 -2 13 9 9 9 -3 14 -2 11 2 -6 10 11 38 19
31 16 -17 -68 -145 -87 -133 -7 5 -9 2 -6 -8 6 -15 -57 -86 -68 -76 -3 3 11
19 30 35 l36 29 -28 -2 c-39 -2 -39 -2 -46 -21 -6 -16 -6 -16 12 0 29 26 38
20 12 -8 -13 -14 -30 -23 -38 -20 -12 4 -12 3 -3 -9 15 -18 5 -40 -15 -32 -10
4 -14 0 -12 -12 2 -11 -3 -16 -15 -15 -12 1 -17 -4 -13 -14 3 -8 1 -11 -4 -8
-6 3 -10 0 -10 -7 0 -10 -2 -11 -8 0 -9 14 -42 6 -42 -10 0 -6 6 -5 15 2 25
21 17 -1 -9 -25 -32 -29 -123 -82 -158 -90 -17 -5 -25 -12 -21 -19 5 -8 3 -8
-8 0 -10 9 -24 7 -54 -7 -22 -9 -34 -18 -27 -18 7 -1 26 6 42 14 17 9 30 12
30 7 0 -12 -80 -38 -103 -34 -12 2 -17 -1 -12 -7 3 -6 0 -13 -7 -15 -31 -9
-185 -49 -203 -53 -16 -3 -17 -2 -5 6 12 9 11 11 -7 11 -12 0 -23 -6 -26 -12
-5 -16 -47 18 -47 39 0 11 4 11 20 3 11 -6 17 -16 14 -22 -5 -8 -1 -9 10 -5
10 4 36 10 58 13 41 7 59 31 57 77 -1 21 -2 20 -10 -3 -7 -22 -8 -20 -6 12 2
26 0 34 -8 28 -8 -7 -11 3 -11 35 1 25 -3 46 -9 48 -5 2 -10 26 -10 53 0 27
-6 55 -12 62 -7 7 -13 25 -13 38 0 31 -27 74 -47 74 -8 0 -11 -4 -8 -10 3 -6
-4 -10 -17 -10 -43 0 -53 -15 -53 -79 0 -50 2 -58 14 -48 9 7 12 8 8 1 -3 -6
1 -42 9 -80 8 -38 17 -78 19 -89 2 -11 8 -34 13 -52 8 -26 8 -31 -4 -26 -22 8
-27 -23 -9 -50 12 -19 13 -27 4 -33 -7 -4 -10 -3 -7 2 3 5 -4 18 -15 28 -20
19 -20 19 -14 -3 4 -17 2 -21 -9 -17 -8 3 -14 2 -14 -2 0 -9 -149 -14 -162 -6
-6 4 -5 10 3 15 11 7 10 9 -3 9 -10 0 -18 -7 -18 -15 0 -16 -46 -12 -87 7 -11
6 -27 8 -35 5 -7 -3 -2 -6 11 -6 13 -1 22 -4 18 -7 -15 -15 -283 60 -304 86
-9 10 -12 11 -13 2 0 -8 -11 -6 -37 8 -21 11 -44 20 -51 20 -7 0 -11 4 -8 9 4
5 -8 13 -26 16 -18 4 -35 11 -38 15 -3 4 -24 17 -48 29 -31 16 -41 25 -34 34
8 9 3 12 -16 14 -14 0 -34 10 -43 22 -9 11 -20 17 -23 13 -4 -3 -4 2 0 12 6
15 3 17 -14 11 -12 -3 -22 -2 -22 3 0 17 27 32 46 26 15 -4 16 -4 5 4 -12 8
-10 15 10 40 29 37 37 39 34 10 -1 -13 0 -15 2 -6 2 9 11 22 19 29 11 9 18 8
32 -4 14 -12 25 -14 47 -8 17 5 26 10 22 10 -5 1 -5 6 -2 12 5 6 16 4 33 -7
l27 -17 -19 22 c-19 21 -19 22 2 42 12 11 29 31 38 44 8 13 21 22 28 19 9 -4
6 -18 -11 -55 -13 -27 -28 -47 -33 -44 -6 3 -7 -1 -4 -9 3 -8 -2 -27 -11 -43
-14 -23 -15 -24 -12 -5 3 12 1 19 -5 16 -5 -3 -6 -20 -2 -37 6 -28 5 -30 -10
-18 -18 15 -18 15 -20 -36 -1 -21 -5 -43 -9 -49 -3 -7 2 -23 13 -36 11 -14 16
-28 12 -32 -3 -4 1 -4 10 -1 9 4 18 0 21 -8 3 -8 29 -20 58 -26 45 -10 55 -9
70 5 10 9 16 21 13 25 -3 5 2 6 11 3 9 -4 15 -3 14 2 -3 17 14 74 21 69 3 -2
7 2 7 10 0 8 14 43 31 77 17 35 37 78 44 96 7 17 16 32 20 32 4 0 3 -12 -2
-26 -6 -14 -10 -38 -10 -53 0 -15 -8 -43 -17 -61 -11 -23 -13 -35 -5 -38 7 -2
4 -21 -9 -59 -10 -30 -16 -66 -13 -78 3 -13 1 -33 -6 -44 -11 -21 3 -31 15
-11 8 13 65 308 65 337 0 12 4 24 9 27 14 9 144 -24 153 -37 20 -31 -2 -147
-28 -147 -12 0 -12 -4 -2 -20 9 -15 10 -34 1 -86 -16 -94 -25 -100 -114 -85
-52 8 -75 9 -85 0 -7 -6 -23 -8 -36 -4 -20 5 -21 5 -5 -5 10 -7 29 -9 43 -6
29 8 76 -3 68 -15 -3 -5 7 -4 22 1 22 9 25 8 21 -4 -5 -12 -1 -13 18 -6 14 5
30 8 37 6 7 -1 9 -1 5 2 -4 2 2 13 14 23 12 10 19 19 15 19 -4 0 -4 5 0 11 5
8 8 8 14 0 3 -7 5 9 4 34 -2 41 2 65 21 120 5 16 5 17 -4 5 -5 -8 -12 -12 -16
-9 -3 3 3 15 13 27 11 12 22 19 26 15 3 -3 6 -1 6 5 0 7 -6 12 -12 12 -9 0 -8
4 2 10 13 9 13 10 0 10 -11 0 -12 3 -3 8 8 5 10 22 6 50 -7 49 -32 68 -108 78
-26 4 -42 11 -38 17 3 6 1 7 -5 3 -7 -4 -18 -4 -24 1 -9 5 -3 10 17 15 l30 7
-30 -2 c-23 -2 -29 -6 -27 -19 4 -25 -25 -23 -33 2 -4 11 -11 17 -17 14 -8 -5
-9 -1 -5 10 6 14 3 16 -13 11 -10 -3 -28 -1 -39 4 -18 10 -23 4 -52 -62 -19
-39 -52 -109 -75 -155 -22 -46 -37 -85 -32 -88 5 -3 10 -4 11 -3 1 2 33 68 72
147 38 78 70 142 70 142 0 0 16 -6 36 -13 l36 -12 -75 -158 c-60 -126 -80
-159 -99 -163 -41 -11 -132 36 -133 68 0 10 24 69 54 132 29 63 62 132 71 154
l18 41 30 -15 c26 -14 30 -14 41 1 11 16 14 16 28 1 18 -18 28 -20 28 -8 0 5
-10 14 -22 21 l-23 12 23 -5 c27 -5 20 10 -9 17 -11 3 -18 3 -15 0 9 -9 -15
-33 -33 -33 -14 0 -14 2 -1 11 12 9 12 10 -3 5 -22 -7 -45 3 -29 13 6 4 4 12
-6 21 -14 13 -15 13 -10 -1 3 -9 2 -22 -3 -30 -7 -12 -9 -12 -9 1 0 13 -1 13
-10 0 -13 -20 -12 -39 1 -20 7 10 9 11 7 2 -6 -22 -23 -9 -24 18 -1 51 -4 60
-18 60 -7 0 -20 7 -27 17 -13 15 -12 15 9 4 12 -6 22 -9 22 -5 0 15 -47 43
-63 38 -13 -4 -17 -1 -15 12 2 9 -4 19 -12 21 -13 4 -13 3 0 -7 12 -9 11 -10
-8 -5 -13 4 -29 2 -37 -5 -9 -7 -15 -8 -20 0 -3 5 1 10 10 10 9 0 13 4 10 10
-8 12 44 62 59 57 6 -2 11 -10 11 -18z m1145 -49 c0 -5 -4 -10 -10 -10 -5 0
-10 5 -10 10 0 6 5 10 10 10 6 0 10 -4 10 -10z m-1080 -130 c0 -36 -113 -160
-145 -160 -12 0 -31 9 -43 21 l-22 20 -26 -31 c-15 -17 -34 -41 -44 -53 l-18
-22 -26 25 c-15 13 -24 30 -22 37 3 7 51 67 108 133 57 67 107 128 112 135 8
11 23 3 68 -37 32 -27 58 -58 58 -68z m-40 90 c0 -5 -4 -10 -10 -10 -5 0 -10
5 -10 10 0 6 5 10 10 10 6 0 10 -4 10 -10z m1267 -174 l131 -133 -30 -23 -31
-23 -27 30 c-19 21 -32 28 -41 22 -11 -6 -9 -14 9 -38 12 -17 22 -33 22 -36 0
-8 -42 -44 -51 -45 -4 0 -50 73 -104 162 -77 127 -94 163 -83 169 8 5 26 17
39 28 13 11 26 20 29 21 3 0 65 -60 137 -134z m-1686 -15 c-12 -8 -12 -12 2
-26 10 -9 17 -19 17 -23 0 -4 -14 7 -30 25 -20 21 -28 38 -24 50 4 13 3 15 -4
4 -7 -10 -11 -10 -17 -1 -16 26 20 30 45 4 20 -20 22 -26 11 -33z m1225 -213
l40 -183 -36 -11 c-19 -6 -36 -10 -38 -9 -1 1 -82 363 -82 372 0 1 15 4 33 6
17 2 35 5 38 5 3 1 23 -80 45 -180z m-966 158 c0 -3 -4 -8 -10 -11 -5 -3 -10
-1 -10 4 0 6 5 11 10 11 6 0 10 -2 10 -4z m1460 -176 c0 -5 -4 -10 -10 -10 -5
0 -10 5 -10 10 0 6 5 10 10 10 6 0 10 -4 10 -10z"/>
<path d="M1255 2624 c-25 -12 -26 -14 -5 -9 14 4 43 10 65 15 l40 7 -35 1
c-19 0 -48 -6 -65 -14z"/>
<path d="M1368 2633 c7 -3 16 -2 19 1 4 3 -2 6 -13 5 -11 0 -14 -3 -6 -6z"/>
<path d="M1440 2613 c0 -13 2 -15 8 -5 5 7 17 10 28 6 16 -5 16 -4 4 5 -22 16
-40 13 -40 -6z"/>
<path d="M1155 2610 c-4 -6 3 -10 14 -10 25 0 27 6 6 13 -8 4 -17 2 -20 -3z"/>
<path d="M1071 2584 c-6 -15 -9 -29 -7 -32 3 -2 10 8 16 23 14 36 7 43 -9 9z"/>
<path d="M1728 2573 c6 -2 18 -2 25 0 6 3 1 5 -13 5 -14 0 -19 -2 -12 -5z"/>
<path d="M1750 2560 c-21 -7 -21 -8 -5 -9 11 0 27 4 35 9 18 11 5 11 -30 0z"/>
<path d="M955 2551 c29 -6 25 -18 -5 -16 -8 0 -18 -4 -22 -10 -5 -6 -8 -5 -8
3 0 10 -4 9 -16 -3 -19 -18 -28 -85 -12 -85 6 0 8 -11 5 -27 -3 -15 3 -46 14
-70 16 -39 19 -70 10 -138 -1 -5 -13 12 -26 40 -13 27 -21 54 -16 60 4 5 8 24
9 42 2 24 -3 33 -19 38 -11 4 -23 4 -26 1 -4 -3 1 -6 11 -6 10 0 14 -5 10 -12
-4 -6 -3 -8 3 -5 7 4 10 -5 9 -22 -2 -37 -16 -53 -16 -19 0 14 -7 31 -15 38
-13 11 -14 10 -9 -6 4 -10 4 -16 0 -12 -6 5 -12 23 -15 49 -2 12 -47 56 -64
62 -10 4 -16 3 -13 -1 3 -5 -9 -16 -25 -26 -42 -25 -27 -35 16 -11 20 10 36
16 38 14 2 -2 36 -65 76 -139 41 -74 75 -137 77 -139 2 -2 10 1 17 7 8 7 17 9
20 5 4 -3 7 -1 7 5 0 12 -57 286 -65 312 -4 11 7 19 40 29 75 22 79 53 7 50
-27 -1 -26 -1 3 -8z m-9 -351 c0 -12 -4 -16 -9 -11 -5 5 -6 14 -3 20 10 15 12
14 12 -9z"/>
<path d="M1790 2550 c-8 -5 -10 -10 -5 -10 6 0 17 5 25 10 8 5 11 10 5 10 -5
0 -17 -5 -25 -10z"/>
<path d="M1060 2531 c0 -6 5 -13 10 -16 6 -3 10 1 10 9 0 9 -4 16 -10 16 -5 0
-10 -4 -10 -9z"/>
<path d="M1640 2524 c0 -8 5 -12 10 -9 6 4 8 11 5 16 -9 14 -15 11 -15 -7z"/>
<path d="M1627 2494 c-4 -4 -7 -14 -7 -23 0 -11 3 -12 11 -4 6 6 10 16 7 23
-2 6 -7 8 -11 4z"/>
<path d="M1932 2491 c-11 -6 -10 -10 4 -15 9 -3 19 -4 22 -1 3 3 0 5 -7 5 -7
0 -9 5 -6 10 7 12 4 12 -13 1z"/>
<path d="M955 2479 c-4 -6 -5 -12 -2 -15 2 -3 7 2 10 11 7 17 1 20 -8 4z"/>
<path d="M694 2464 c-16 -13 -16 -15 -2 -10 10 3 20 1 23 -4 3 -5 -5 -11 -17
-13 l-23 -4 23 -2 c24 -1 41 24 25 40 -6 6 -16 3 -29 -7z"/>
<path d="M979 2478 c-10 -34 -7 -51 37 -197 3 -9 8 -11 14 -5 6 6 -1 37 -20
86 -16 42 -27 86 -25 97 2 12 2 21 -1 21 -2 0 -4 -1 -5 -2z"/>
<path d="M1081 2465 c1 -19 18 -51 18 -35 0 8 -4 22 -9 30 -5 8 -9 11 -9 5z"/>
<path d="M1312 2445 c0 -16 2 -22 5 -12 2 9 2 23 0 30 -3 6 -5 -1 -5 -18z"/>
<path d="M1881 2444 c0 -11 3 -14 6 -6 3 7 2 16 -1 19 -3 4 -6 -2 -5 -13z"/>
<path d="M2070 2409 c0 -5 4 -8 9 -4 5 3 12 1 16 -5 3 -5 12 -10 18 -10 7 0 3
7 -7 15 -23 18 -36 19 -36 4z"/>
<path d="M518 2337 c-21 -18 -23 -24 -12 -34 8 -8 15 -9 19 -3 3 6 1 10 -6 10
-7 0 -2 9 11 20 13 11 21 22 19 25 -3 2 -16 -6 -31 -18z"/>
<path d="M670 2340 c0 -5 5 -10 11 -10 5 0 7 5 4 10 -3 6 -8 10 -11 10 -2 0
-4 -4 -4 -10z"/>
<path d="M896 2301 c-4 -6 -3 -18 2 -27 8 -15 10 -14 16 2 8 20 -8 42 -18 25z"/>
<path d="M2227 2296 c-4 -11 -3 -15 4 -11 6 4 10 1 8 -6 -4 -33 0 -40 15 -27
8 7 11 15 7 18 -4 3 -12 13 -18 24 -9 16 -11 17 -16 2z"/>
<path d="M570 2290 c-8 -5 -10 -10 -5 -10 6 0 17 5 25 10 8 5 11 10 5 10 -5 0
-17 -5 -25 -10z"/>
<path d="M610 2286 c0 -2 7 -7 16 -10 8 -3 12 -2 9 4 -6 10 -25 14 -25 6z"/>
<path d="M2065 2269 c-4 -6 -5 -12 -2 -15 2 -3 7 2 10 11 7 17 1 20 -8 4z"/>
<path d="M1535 2250 c-3 -5 -1 -10 4 -10 6 0 11 5 11 10 0 6 -2 10 -4 10 -3 0
-8 -4 -11 -10z"/>
<path d="M1493 2215 c0 -22 2 -30 4 -17 2 12 2 30 0 40 -3 9 -5 -1 -4 -23z"/>
<path d="M1513 2215 c0 -8 4 -12 9 -9 4 3 8 9 8 15 0 5 -4 9 -8 9 -5 0 -9 -7
-9 -15z"/>
<path d="M614 2198 l-19 -23 23 19 c21 18 27 26 19 26 -2 0 -12 -10 -23 -22z"/>
<path d="M699 2123 c-13 -16 -12 -17 4 -4 9 7 17 15 17 17 0 8 -8 3 -21 -13z"/>
<path d="M1061 2121 c-9 -6 -10 -11 -2 -15 6 -4 11 -3 11 3 0 5 8 12 18 14 12
3 13 5 2 6 -8 0 -21 -3 -29 -8z"/>
<path d="M805 2079 c-4 -6 -5 -12 -2 -15 2 -3 7 2 10 11 7 17 1 20 -8 4z"/>
<path d="M770 2056 c0 -2 7 -7 16 -10 8 -3 12 -2 9 4 -6 10 -25 14 -25 6z"/>
<path d="M1944 2318 c-62 -102 -109 -173 -116 -178 -4 -3 -3 -11 1 -19 6 -9
32 26 84 108 42 66 72 123 67 126 -5 3 -21 -14 -36 -37z"/>
<path d="M1173 1939 c-161 -12 -296 -69 -345 -147 -37 -58 -58 -142 -58 -229
l0 -83 519 0 c403 0 521 3 529 13 13 16 5 150 -13 213 -18 62 -63 126 -112
158 -53 34 -172 66 -273 72 -47 2 -101 6 -120 7 -19 2 -77 0 -127 -4z m190
-22 c-2 -4 7 -5 21 -1 28 7 166 -15 166 -27 0 -4 12 -6 28 -5 15 0 47 -7 72
-17 43 -18 44 -19 25 -33 -11 -8 -28 -13 -38 -10 -9 2 -15 0 -12 -4 3 -5 2
-10 -2 -13 -5 -2 -1 -2 7 0 10 3 12 1 5 -6 -12 -12 -57 -3 -49 10 3 5 -2 6
-10 3 -9 -3 -17 2 -20 14 -10 31 -32 33 -45 5 -12 -25 -5 -97 8 -88 4 2 8 -2
8 -11 0 -9 -7 -12 -17 -9 -10 3 -28 -4 -41 -16 l-24 -21 27 16 c44 26 46 19 5
-15 -52 -43 -39 -48 20 -8 26 18 49 33 50 34 1 0 -4 23 -12 50 -18 57 -13 66
18 39 52 -47 51 -46 100 -9 55 42 62 43 44 8 -37 -73 -32 -91 34 -128 22 -12
26 -12 26 1 0 8 -5 14 -12 14 -6 0 -21 13 -32 28 -17 23 -19 32 -9 53 6 14 18
25 26 24 20 0 44 -52 45 -98 1 -20 5 -40 10 -45 4 -4 5 0 0 8 -6 11 -5 12 4 4
15 -14 16 -143 1 -158 -8 -8 -13 -7 -20 4 -6 9 -10 10 -10 3 0 -8 -120 -11
-480 -11 l-480 0 -6 23 c-3 13 0 33 6 45 8 15 8 20 1 16 -7 -5 -11 3 -11 19 0
14 4 24 8 21 5 -3 7 10 6 29 -2 19 1 37 6 40 6 4 10 15 10 25 0 10 7 25 15 33
8 8 11 19 7 23 -4 5 0 3 7 -3 12 -11 12 -16 -5 -35 -16 -19 -16 -21 -1 -9 20
16 46 58 29 47 -5 -3 -13 1 -16 10 -4 10 -2 13 6 8 8 -5 9 -1 4 12 -5 14 -4
16 4 8 6 -6 12 -23 14 -38 1 -14 6 -29 9 -33 11 -10 8 -23 -4 -23 -5 0 -7 5
-3 12 4 7 3 8 -4 4 -6 -4 -8 -14 -5 -24 6 -15 5 -16 -12 -2 -17 13 -18 13 -13
0 8 -21 -16 -42 -31 -27 -8 8 -11 8 -11 0 0 -23 30 -20 73 7 l46 29 -20 53
c-23 63 -23 64 -4 48 8 -6 20 -8 26 -4 7 4 9 3 6 -3 -4 -6 5 -20 18 -33 l25
-23 46 36 c26 21 54 37 61 37 8 0 12 4 8 10 -9 15 -66 7 -60 -9 4 -10 -1 -12
-22 -6 -27 6 -27 6 -8 -9 19 -15 19 -16 1 -9 -13 4 -17 3 -12 -5 5 -8 0 -11
-16 -8 -14 2 -22 10 -22 20 1 9 -2 14 -6 11 -4 -2 -16 2 -26 10 -18 13 -18 14
6 23 71 27 122 42 130 37 5 -3 10 -1 12 5 2 6 30 13 63 18 79 9 234 9 228 -1z"/>
<path d="M1425 1900 c4 -6 11 -8 16 -5 14 9 11 15 -7 15 -8 0 -12 -5 -9 -10z"/>
<path d="M1600 1871 c0 -9 30 -24 36 -18 2 1 -6 8 -16 15 -11 7 -20 8 -20 3z"/>
<path d="M941 1850 c-9 -5 -4 -7 13 -7 29 0 32 2 13 10 -8 3 -20 2 -26 -3z"/>
<path d="M1206 1838 c3 -7 25 -28 49 -46 l45 -32 26 22 c15 13 35 30 45 39 11
11 22 14 30 8 9 -5 9 -9 3 -9 -12 0 -44 -69 -44 -93 0 -15 75 -69 84 -60 3 3
1 12 -6 20 -6 7 -9 15 -7 17 2 1 15 10 29 20 l25 17 -25 -3 c-14 -2 -36 -10
-49 -17 -14 -8 -21 -9 -17 -2 4 6 2 11 -4 11 -6 0 -9 4 -5 10 3 5 13 7 23 4
10 -4 13 -3 6 3 -15 12 -25 43 -14 43 6 0 10 7 10 16 0 8 5 12 11 9 6 -4 5 2
-3 14 -16 26 -49 27 -66 1 -8 -14 -20 -19 -42 -16 -16 2 -27 -1 -24 -6 3 -5
13 -7 21 -4 8 3 11 1 8 -4 -11 -18 -33 -11 -62 20 -28 30 -57 41 -47 18z m234
-112 c0 -2 -8 -10 -17 -17 -16 -13 -17 -12 -4 4 13 16 21 21 21 13z"/>
<path d="M1194 1805 c17 -81 18 -87 5 -80 -7 5 -10 4 -6 -2 13 -22 -62 -38
-96 -21 -10 5 -14 14 -11 20 4 7 3 8 -4 4 -8 -5 -12 2 -12 19 0 15 4 24 10 20
6 -3 10 1 10 10 0 8 7 18 15 21 20 8 10 23 -13 20 -10 -2 -24 -21 -34 -48
l-17 -46 45 -31 c24 -18 44 -37 44 -42 0 -6 -3 -8 -8 -5 -4 2 -29 6 -56 7
l-50 3 -17 -59 c-10 -33 -18 -54 -19 -47 -2 6 -3 15 -5 20 -1 4 -5 24 -9 45
l-8 37 -58 0 c-32 0 -67 3 -77 6 -16 5 -16 4 2 -11 13 -10 30 -14 48 -11 15 3
27 1 27 -4 0 -5 6 -7 14 -4 15 6 46 -41 46 -69 0 -8 7 -20 15 -27 12 -10 16
-9 22 6 6 16 7 16 15 -2 6 -14 7 -11 5 13 -2 19 1 29 6 26 6 -4 8 3 5 15 -4
12 -2 22 4 22 5 0 7 4 4 8 -5 8 25 12 122 16 32 2 41 -1 38 -11 -4 -11 -1 -11
15 -2 26 13 45 6 51 -19 4 -16 2 -19 -10 -15 -10 4 -8 -1 6 -15 12 -12 22 -26
22 -32 0 -19 32 -10 37 10 3 11 11 20 18 20 20 0 26 28 7 33 -15 4 -15 5 1 6
10 0 16 5 13 10 -9 14 42 23 64 11 16 -9 20 -8 20 5 0 11 -11 15 -39 15 -22 0
-46 3 -54 6 -16 6 -16 4 -38 -76 l-12 -45 -17 59 -16 60 -57 -3 c-31 -1 -57
-1 -57 1 0 3 20 19 44 37 l43 33 -13 46 c-17 55 -40 84 -30 37z m-44 -125 c0
-5 -4 -10 -10 -10 -5 0 -10 5 -10 10 0 6 5 10 10 10 6 0 10 -4 10 -10z"/>
<path d="M1422 1784 c-7 -8 -8 -14 -3 -14 10 0 25 19 20 25 -2 1 -10 -3 -17
-11z"/>
<path d="M1711 1764 c0 -11 3 -14 6 -6 3 7 2 16 -1 19 -3 4 -6 -2 -5 -13z"/>
<path d="M1570 1728 c0 -4 4 -8 9 -8 6 0 12 4 15 8 3 5 -1 9 -9 9 -8 0 -15 -4
-15 -9z"/>
<path d="M1120 1721 c0 -7 -5 -9 -12 -5 -7 5 -8 3 -3 -5 5 -9 10 -10 18 -2 6
6 8 14 4 18 -4 3 -7 1 -7 -6z"/>
<path d="M1599 1718 c-5 -16 -4 -46 2 -42 4 2 7 13 6 24 -1 17 -5 26 -8 18z"/>
<path d="M1740 1710 c-9 -6 -10 -10 -3 -10 6 0 15 5 18 10 8 12 4 12 -15 0z"/>
<path d="M1266 1695 c-9 -26 -7 -32 5 -12 6 10 9 21 6 23 -2 3 -7 -2 -11 -11z"/>
<path d="M1500 1652 c-19 -2 -39 -8 -45 -14 -7 -7 4 -9 38 -4 30 3 47 2 47 -5
0 -6 4 -7 10 -4 6 3 7 -1 4 -9 -4 -11 0 -16 12 -16 16 0 17 -2 4 -10 -8 -5
-10 -10 -4 -10 6 0 17 -14 25 -32 7 -17 15 -26 17 -20 2 7 8 10 13 6 5 -3 12
8 15 25 4 17 11 31 16 31 6 0 8 9 5 20 -6 25 17 29 73 15 18 -5 21 -4 11 3
-11 8 -10 11 5 15 10 2 -2 5 -28 6 -25 0 -53 4 -61 7 -12 4 -18 -8 -28 -50 -7
-31 -16 -56 -20 -56 -5 0 -11 17 -15 38 -12 67 -17 71 -94 64z"/>
<path d="M860 1620 c-23 -7 -23 -8 -3 -9 12 -1 25 4 28 9 3 6 5 10 3 9 -2 -1
-14 -5 -28 -9z"/>
<path d="M1505 1620 c-16 -7 -17 -9 -3 -9 9 -1 20 4 23 9 7 11 7 11 -20 0z"/>
<path d="M1148 1613 c7 -3 16 -2 19 1 4 3 -2 6 -13 5 -11 0 -14 -3 -6 -6z"/>
<path d="M1772 1605 c-1 -11 2 -26 7 -33 7 -11 9 -10 14 3 4 9 3 13 -2 10 -5
-3 -12 5 -14 17 -4 20 -4 20 -5 3z"/>
<path d="M1700 1600 c20 -13 33 -13 25 0 -3 6 -14 10 -23 10 -15 0 -15 -2 -2
-10z"/>
<path d="M1515 1590 c-4 -6 1 -7 11 -3 13 5 15 3 9 -7 -5 -9 -4 -11 4 -6 6 4
9 12 6 17 -8 12 -22 12 -30 -1z"/>
<path d="M1672 1569 c-1 -16 -1 -29 2 -29 7 0 13 50 7 55 -4 2 -8 -10 -9 -26z"/>
<path d="M1652 1555 c0 -16 2 -22 5 -12 2 9 2 23 0 30 -3 6 -5 -1 -5 -18z"/>
<path d="M779 1449 c-6 -3 -8 -118 -7 -285 l3 -279 110 -2 c64 -1 115 3 122 9
9 7 13 43 13 114 l0 104 168 -2 167 -3 5 -110 5 -110 120 0 120 0 3 148 c2
115 5 147 16 147 24 0 36 -26 52 -111 20 -106 38 -143 79 -169 81 -50 180 -30
218 44 18 35 39 151 29 161 -3 3 -28 5 -57 5 l-51 0 4 -32 c5 -46 -13 -88 -37
-88 -36 0 -41 31 -41 243 0 165 -3 207 -14 216 -11 9 -141 11 -516 9 -276 -2
-506 -6 -511 -9z m341 -19 c0 -6 33 -9 83 -8 70 1 76 2 37 8 -25 4 90 6 255 4
l300 -3 3 -86 c2 -54 -1 -85 -8 -85 -5 0 -9 -19 -9 -42 l2 -43 7 40 c5 28 8 6
9 -75 1 -128 12 -163 51 -168 39 -4 70 31 70 78 0 32 4 40 19 40 36 0 45 -25
32 -85 -7 -31 -17 -53 -22 -50 -5 4 -9 12 -9 20 0 8 -5 17 -11 20 -5 4 -3 -9
5 -29 8 -20 13 -37 10 -37 -14 -4 -25 -7 -36 -8 -10 -1 -10 -3 0 -10 10 -6 2
-11 -24 -16 -27 -5 -40 -3 -42 5 -4 10 -6 10 -12 0 -5 -8 -17 -7 -45 7 -21 10
-36 20 -35 23 7 11 -22 50 -31 44 -7 -4 -7 1 0 15 9 15 9 26 1 42 -21 38 -49
133 -43 144 4 5 3 7 -2 3 -5 -5 -15 1 -22 12 -16 23 -44 23 -55 0 -4 -8 -7
-70 -7 -137 l-1 -123 -77 -2 -78 -2 80 -5 80 -6 -95 -6 c-52 -4 -99 -3 -103 1
-4 3 -10 49 -12 101 -4 79 -8 97 -25 111 -14 11 -16 18 -8 21 8 3 6 6 -4 6
-10 1 -18 -3 -18 -8 0 -6 -70 -10 -169 -9 -169 0 -191 -3 -191 -25 0 -6 6 -2
14 9 8 10 18 16 22 12 4 -4 2 -13 -4 -20 -12 -15 -21 -179 -9 -171 4 2 7 -2 7
-10 0 -21 -27 -29 -34 -10 -3 8 -3 19 0 25 3 5 -3 4 -15 -4 -19 -12 -19 -13
-3 -19 9 -4 -23 -8 -71 -10 -49 -2 -91 -1 -94 4 -2 4 -1 7 4 7 4 0 8 114 8
252 l0 253 125 5 c69 3 142 7 163 8 20 1 37 -2 37 -8z m591 -433 c-10 -9 -11
-8 -5 6 3 10 9 15 12 12 3 -3 0 -11 -7 -18z"/>
<path d="M1408 1423 c7 -3 16 -2 19 1 4 3 -2 6 -13 5 -11 0 -14 -3 -6 -6z"/>
<path d="M1605 1249 c-11 -17 1 -21 15 -4 8 9 8 15 2 15 -6 0 -14 -5 -17 -11z"/>
<path d="M970 1170 c8 -5 20 -10 25 -10 6 0 3 5 -5 10 -8 5 -19 10 -25 10 -5
0 -3 -5 5 -10z"/>
<path d="M1308 1163 c7 -3 16 -2 19 1 4 3 -2 6 -13 5 -11 0 -14 -3 -6 -6z"/>
<path d="M1433 1060 c0 -25 2 -35 4 -22 2 12 2 32 0 45 -2 12 -4 2 -4 -23z"/>
<path d="M962 1045 c0 -16 2 -22 5 -12 2 9 2 23 0 30 -3 6 -5 -1 -5 -18z"/>
<path d="M1947 999 c4 -13 8 -18 11 -10 2 7 -1 18 -6 23 -8 8 -9 4 -5 -13z"/>
<path d="M1785 1000 c-3 -5 -1 -10 4 -10 6 0 11 5 11 10 0 6 -2 10 -4 10 -3 0
-8 -4 -11 -10z"/>
<path d="M1900 970 c-8 -5 -12 -12 -9 -15 4 -3 12 1 19 10 14 17 11 19 -10 5z"/>
<path d="M1848 953 c7 -3 16 -2 19 1 4 3 -2 6 -13 5 -11 0 -14 -3 -6 -6z"/>
<path d="M1910 946 c0 -2 7 -7 16 -10 8 -3 12 -2 9 4 -6 10 -25 14 -25 6z"/>
<path d="M1878 933 c7 -3 16 -2 19 1 4 3 -2 6 -13 5 -11 0 -14 -3 -6 -6z"/>
<path d="M1840 923 c8 -3 22 -11 30 -17 13 -10 13 -9 1 7 -7 9 -21 17 -30 16
-13 0 -14 -1 -1 -6z"/>
<path d="M1798 913 c7 -3 16 -2 19 1 4 3 -2 6 -13 5 -11 0 -14 -3 -6 -6z"/>
<path d="M2421 2049 c-1 -9 8 -24 19 -34 11 -10 20 -13 20 -7 0 7 -4 12 -8 12
-5 0 -14 10 -20 23 -7 15 -11 17 -11 6z"/>
<path d="M2187 1903 c-13 -12 -7 -23 11 -22 10 0 12 3 4 6 -6 2 -10 9 -6 14 6
10 0 12 -9 2z"/>
<path d="M1975 1890 c-3 -5 -2 -17 3 -26 6 -11 11 -13 16 -5 4 6 2 11 -4 11
-7 0 -10 7 -6 15 6 17 0 20 -9 5z"/>
<path d="M2050 1770 c0 -5 7 -10 16 -10 8 0 12 5 9 10 -3 6 -10 10 -16 10 -5
0 -9 -4 -9 -10z"/>
<path d="M2560 1751 c0 -5 7 -11 15 -15 8 -3 15 -1 15 3 0 5 -7 11 -15 15 -8
3 -15 1 -15 -3z"/>
<path d="M2420 1720 c-18 -12 -2 -12 25 0 13 6 15 9 5 9 -8 0 -22 -4 -30 -9z"/>
<path d="M2592 1700 c0 -14 2 -19 5 -12 2 6 2 18 0 25 -3 6 -5 1 -5 -13z"/>
<path d="M2390 1511 c0 -5 9 -7 20 -4 11 3 20 7 20 9 0 2 -9 4 -20 4 -11 0
-20 -4 -20 -9z"/>
<path d="M2565 1510 c3 -5 11 -10 16 -10 6 0 7 5 4 10 -3 6 -11 10 -16 10 -6
0 -7 -4 -4 -10z"/>
<path d="M2291 1426 c-8 -10 -8 -22 3 -47 7 -19 11 -40 9 -46 -3 -7 1 -13 7
-13 10 0 10 -4 0 -15 -7 -8 -17 -15 -22 -15 -6 0 -5 7 2 15 21 25 -5 17 -30
-10 -13 -14 -18 -25 -11 -25 7 0 9 -5 6 -10 -4 -6 -10 -8 -15 -5 -4 3 -10 -3
-12 -13 -8 -28 19 -56 54 -58 22 -1 27 1 17 8 -10 7 -7 7 9 3 12 -4 22 -2 22
4 0 6 7 8 15 5 12 -5 14 -15 9 -39 -3 -18 -1 -42 5 -52 9 -14 10 -11 5 17 l-5
35 15 -33 c8 -18 22 -35 31 -38 22 -9 47 15 39 39 -4 13 -2 17 5 13 6 -4 11
-13 11 -21 0 -8 3 -16 8 -18 4 -3 7 5 7 18 0 13 -3 21 -7 18 -11 -6 -10 5 4
30 10 20 10 21 -6 8 -14 -12 -16 -12 -10 3 7 18 20 21 29 6 3 -5 12 -10 18
-10 7 0 6 4 -3 10 -22 14 5 13 32 -1 15 -8 19 -8 14 0 -4 6 0 11 9 11 9 0 23
6 31 14 12 13 11 17 -11 34 -13 11 -21 22 -18 26 4 3 -4 16 -17 28 -18 17 -22
18 -17 5 3 -9 2 -17 -2 -17 -16 0 -21 31 -6 36 8 4 15 10 15 16 0 5 -4 6 -10
3 -5 -3 -10 -1 -10 4 0 6 5 11 11 11 6 0 8 7 4 18 -5 13 -3 14 6 5 6 -6 12
-23 12 -37 0 -15 3 -28 6 -31 4 -2 7 25 7 61 0 35 -3 58 -7 52 -6 -9 -14 -9
-33 2 -23 12 -28 11 -39 -1 -6 -8 -24 -25 -38 -37 -24 -21 -30 -22 -48 -10
-12 7 -21 18 -21 25 0 7 -6 10 -13 7 -8 -3 -20 2 -27 11 -15 19 -24 19 -39 1z
m65 -41 c23 -19 46 -35 51 -35 4 0 28 16 52 35 54 43 64 44 47 3 -31 -75 -29
-91 14 -120 22 -16 45 -28 50 -28 6 0 10 -4 10 -10 0 -6 -28 -10 -65 -10 -62
0 -66 -1 -76 -27 -6 -16 -11 -43 -12 -60 -3 -53 -23 -38 -37 27 l-13 59 -69 3
-70 3 48 34 c27 19 50 35 51 36 3 1 -21 80 -32 108 -11 26 3 21 51 -18z m194
15 c0 -5 -2 -10 -4 -10 -3 0 -8 5 -11 10 -3 6 -1 10 4 10 6 0 11 -4 11 -10z
m-270 -120 c0 -5 -4 -10 -10 -10 -5 0 -10 5 -10 10 0 6 5 10 10 10 6 0 10 -4
10 -10z m270 0 c0 -5 -4 -10 -10 -10 -5 0 -10 5 -10 10 0 6 5 10 10 10 6 0 10
-4 10 -10z"/>
<path d="M2380 1310 c0 -5 5 -10 10 -10 6 0 10 5 10 10 0 6 -4 10 -10 10 -5 0
-10 -4 -10 -10z"/>
<path d="M2346 1257 c3 -10 9 -15 12 -12 3 3 0 11 -7 18 -10 9 -11 8 -5 -6z"/>
<path d="M2408 1413 c7 -3 16 -2 19 1 4 3 -2 6 -13 5 -11 0 -14 -3 -6 -6z"/>
<path d="M2247 1390 c-3 -11 -1 -20 4 -20 5 0 9 9 9 20 0 11 -2 20 -4 20 -2 0
-6 -9 -9 -20z"/>
<path d="M2400 1389 c0 -5 5 -7 10 -4 6 3 10 8 10 11 0 2 -4 4 -10 4 -5 0 -10
-5 -10 -11z"/>
<path d="M2268 1363 c-4 -13 0 -19 13 -19 14 0 16 3 6 16 -6 8 -12 16 -13 18
-1 1 -4 -5 -6 -15z"/>
<path d="M2641 1354 c0 -11 3 -14 6 -6 3 7 2 16 -1 19 -3 4 -6 -2 -5 -13z"/>
<path d="M2243 1324 c0 -14 2 -21 6 -17 3 4 9 10 12 13 4 3 1 10 -6 17 -10 9
-12 6 -12 -13z"/>
<path d="M2605 1247 c11 -9 15 -19 10 -28 -6 -11 -5 -12 5 -2 11 10 11 15 0
28 -7 8 -17 15 -23 15 -6 0 -3 -6 8 -13z"/>
<path d="M2324 1165 c-4 -14 -4 -29 0 -32 3 -4 6 3 6 13 0 11 5 25 12 32 9 9
9 12 0 12 -6 0 -14 -11 -18 -25z"/>
<path d="M2151 1144 c0 -11 3 -14 6 -6 3 7 2 16 -1 19 -3 4 -6 -2 -5 -13z"/>
<path d="M2142 1095 c0 -16 2 -22 5 -12 2 9 2 23 0 30 -3 6 -5 -1 -5 -18z"/>
<path d="M2183 1091 c1 -3 -13 -22 -31 -41 -24 -25 -31 -41 -27 -57 3 -13 1
-23 -5 -23 -5 0 -10 5 -10 12 0 6 -3 9 -6 6 -3 -3 2 -22 10 -42 9 -21 11 -36
5 -36 -6 0 -7 -5 -4 -10 4 -6 10 -8 15 -5 5 3 11 1 15 -5 4 -6 12 -7 18 -3 9
5 9 3 0 -8 -9 -11 -7 -14 15 -15 38 -2 135 -38 140 -52 2 -7 12 -12 23 -12 10
0 19 -4 19 -8 0 -5 6 -9 13 -9 6 -1 26 -7 44 -14 29 -12 35 -11 63 9 34 26 37
23 14 -16 l-16 -27 21 25 c11 14 18 33 15 43 -4 11 -1 17 8 15 8 -2 13 7 13
25 -1 15 2 27 5 27 3 0 6 16 7 35 1 19 -2 33 -5 32 -4 -1 -20 10 -35 25 -17
16 -35 24 -44 21 -10 -4 -14 -2 -10 4 10 16 -20 25 -87 29 -56 2 -59 2 -69
-27 -13 -33 -21 -35 -57 -14 -30 17 -40 18 -40 5 0 -5 16 -17 36 -26 29 -14
40 -15 53 -6 42 31 77 52 86 52 6 0 39 -15 75 -33 74 -36 82 -55 55 -115 -35
-75 -52 -79 -147 -38 l-38 16 17 35 c9 19 21 35 25 35 5 0 27 -9 49 -21 23
-11 44 -18 47 -15 8 9 -7 20 -55 40 l-42 18 -38 -31 c-46 -38 -64 -38 -128 -3
-60 32 -65 51 -34 121 18 44 25 51 49 51 16 0 50 -9 77 -21 26 -11 43 -15 36
-8 -6 6 -9 17 -6 24 3 10 -2 12 -19 8 -13 -3 -20 -2 -16 2 4 4 0 14 -10 21
-24 19 -40 17 -16 -2 17 -14 17 -15 1 -10 -10 3 -23 6 -28 6 -6 0 -8 3 -6 8 3
4 -6 8 -19 8 -13 1 -22 -1 -21 -5z"/>
<path d="M2297 1089 c7 -7 15 -10 18 -7 3 3 -2 9 -12 12 -14 6 -15 5 -6 -5z"/>
<path d="M2535 970 c3 -5 8 -10 11 -10 2 0 4 5 4 10 0 6 -5 10 -11 10 -5 0 -7
-4 -4 -10z"/>
<path d="M2555 900 c3 -5 8 -10 11 -10 2 0 4 5 4 10 0 6 -5 10 -11 10 -5 0 -7
-4 -4 -10z"/>
<path d="M2150 796 c0 -2 7 -7 16 -10 8 -3 12 -2 9 4 -6 10 -25 14 -25 6z"/>
<path d="M2345 760 c-3 -5 -1 -10 4 -10 6 0 11 5 11 10 0 6 -2 10 -4 10 -3 0
-8 -4 -11 -10z"/>
<path d="M2370 729 c0 -5 5 -7 10 -4 6 3 10 8 10 11 0 2 -4 4 -10 4 -5 0 -10
-5 -10 -11z"/>
<path d="M2431 674 c0 -11 3 -14 6 -6 3 7 2 16 -1 19 -3 4 -6 -2 -5 -13z"/>
<path d="M1780 2040 c8 -6 24 -15 35 -21 16 -8 15 -6 -4 10 -13 12 -28 21 -35
21 -6 0 -4 -5 4 -10z"/>
<path d="M448 977 c-26 -12 -48 -27 -48 -34 0 -15 102 29 108 46 5 15 -5 13
-60 -12z"/>
<path d="M624 721 c1 -21 23 -24 30 -5 5 14 4 15 -8 5 -11 -9 -15 -9 -19 1 -3
9 -4 9 -3 -1z"/>
<path d="M579 658 c-12 -23 -12 -23 10 -4 23 21 26 26 11 26 -5 0 -15 -10 -21
-22z"/>
<path d="M500 580 c0 -5 5 -10 10 -10 6 0 10 5 10 10 0 6 -4 10 -10 10 -5 0
-10 -4 -10 -10z"/>
<path d="M425 470 c-19 -8 -19 -9 3 -9 12 -1 22 4 22 9 0 6 -1 10 -2 9 -2 0
-12 -4 -23 -9z"/>
<path d="M480 401 c0 -6 4 -13 10 -16 6 -3 7 1 4 9 -7 18 -14 21 -14 7z"/>
<path d="M685 840 c3 -5 8 -10 11 -10 2 0 4 5 4 10 0 6 -5 10 -11 10 -5 0 -7
-4 -4 -10z"/>
<path d="M1984 809 c-3 -6 -1 -16 5 -22 9 -9 10 -7 5 7 -6 15 -4 17 6 11 9 -5
11 -4 6 3 -9 15 -13 15 -22 1z"/>
<path d="M1930 780 c0 -5 5 -10 11 -10 5 0 7 5 4 10 -3 6 -8 10 -11 10 -2 0
-4 -4 -4 -10z"/>
<path d="M800 745 c7 -8 17 -15 22 -15 5 0 3 7 -6 15 -8 8 -18 15 -22 15 -3 0
-1 -7 6 -15z"/>
<path d="M1815 670 c-3 -5 -1 -10 4 -10 6 0 11 5 11 10 0 6 -2 10 -4 10 -3 0
-8 -4 -11 -10z"/>
<path d="M1740 640 c-9 -6 -10 -10 -3 -10 6 0 15 5 18 10 8 12 4 12 -15 0z"/>
<path d="M1755 620 c-3 -5 -3 -10 2 -10 4 0 1 -5 -7 -11 -12 -8 -12 -10 -1 -7
8 2 15 12 17 21 3 19 -2 22 -11 7z"/>
<path d="M2020 623 c0 -5 13 -17 27 -27 l27 -20 -20 27 c-18 26 -34 35 -34 20z"/>
<path d="M2102 594 c10 -10 20 -16 22 -13 3 3 -5 11 -17 18 -21 13 -21 12 -5
-5z"/>
<path d="M1685 570 c-16 -4 -23 -8 -15 -9 9 -2 5 -6 -10 -12 -14 -6 -27 -10
-29 -9 -10 4 -25 -38 -25 -71 -1 -21 1 -35 3 -33 2 2 11 -5 19 -17 10 -15 11
-24 3 -32 -6 -6 -11 -18 -10 -26 0 -9 5 -5 11 9 6 14 11 21 13 15 16 -62 30
-93 38 -88 5 3 6 -4 2 -18 -5 -20 -4 -21 5 -9 10 12 11 11 7 -8 -3 -12 -1 -20
4 -16 13 8 11 -10 -3 -24 -14 -14 -19 -84 -6 -76 4 3 6 17 2 32 -5 26 -5 26
11 7 8 -11 13 -25 11 -32 -3 -7 1 -10 9 -7 11 5 12 10 2 27 -7 12 -16 25 -22
29 -6 5 -5 12 3 20 9 9 12 9 12 -5 0 -9 9 -25 20 -35 13 -12 18 -26 14 -38 -4
-12 -3 -15 3 -7 4 6 22 15 38 19 16 4 50 19 75 34 43 26 45 28 46 76 1 27 4
58 8 69 7 19 7 19 -4 1 -9 -14 -14 -15 -20 -6 -5 8 2 21 19 36 14 13 23 24 19
24 -4 0 -14 -7 -22 -16 -14 -14 -19 -12 -48 15 -18 17 -37 31 -43 31 -5 0 -3
-5 5 -10 12 -8 12 -10 -5 -10 -15 0 -17 -3 -7 -9 11 -7 11 -9 0 -13 -16 -7
-51 16 -41 25 3 4 0 7 -8 7 -8 1 4 7 25 15 21 7 42 19 46 25 4 6 -6 38 -23 71
-28 56 -31 59 -66 58 -20 -1 -49 -5 -66 -9z m112 -55 c27 -48 28 -61 6 -68
-10 -2 -26 -8 -35 -12 -13 -5 -21 2 -32 29 -8 20 -20 36 -25 36 -15 0 -14 -2
13 -62 13 -29 36 -82 51 -118 28 -67 41 -88 50 -78 5 5 -25 85 -45 121 -6 10
-6 17 -1 17 5 0 11 -6 13 -12 4 -10 11 -10 33 0 32 15 36 12 58 -46 29 -75 24
-95 -31 -121 -72 -34 -91 -27 -127 44 -48 95 -95 218 -95 246 0 22 8 30 48 48
66 29 92 24 119 -24z"/>
<path d="M2150 571 c0 -6 5 -11 11 -11 5 0 7 -4 4 -10 -3 -6 1 -7 10 -4 9 4
15 7 13 8 -2 1 -11 8 -20 15 -12 9 -18 10 -18 2z"/>
<path d="M815 551 c-3 -12 -10 -21 -15 -21 -5 0 -6 -7 -3 -17 4 -9 2 -14 -3
-10 -6 3 -16 2 -24 -3 -11 -7 -9 -9 8 -7 17 1 28 12 38 36 8 19 12 36 10 38
-2 3 -7 -5 -11 -16z"/>
<path d="M2100 560 c0 -5 5 -10 11 -10 5 0 7 5 4 10 -3 6 -8 10 -11 10 -2 0
-4 -4 -4 -10z"/>
<path d="M1188 553 c6 -2 18 -2 25 0 6 3 1 5 -13 5 -14 0 -19 -2 -12 -5z"/>
<path d="M1618 553 c7 -3 16 -2 19 1 4 3 -2 6 -13 5 -11 0 -14 -3 -6 -6z"/>
<path d="M2360 549 c0 -5 5 -7 10 -4 6 3 10 8 10 11 0 2 -4 4 -10 4 -5 0 -10
-5 -10 -11z"/>
<path d="M1240 540 c0 -5 5 -10 11 -10 5 0 7 5 4 10 -3 6 -8 10 -11 10 -2 0
-4 -4 -4 -10z"/>
<path d="M1420 540 c-12 -7 -10 -9 7 -7 12 0 19 5 17 9 -6 10 -6 10 -24 -2z"/>
<path d="M1560 540 c8 -5 20 -10 25 -10 6 0 3 5 -5 10 -8 5 -19 10 -25 10 -5
0 -3 -5 5 -10z"/>
<path d="M1464 529 c-3 -5 9 -9 25 -9 17 0 31 2 31 4 0 8 -51 13 -56 5z"/>
<path d="M1596 523 c-6 -14 -5 -15 5 -6 7 7 10 15 7 18 -3 3 -9 -2 -12 -12z"/>
<path d="M2336 524 c-8 -22 -4 -25 11 -9 7 8 9 16 4 19 -5 3 -12 -1 -15 -10z"/>
<path d="M1355 520 c-3 -5 -1 -10 4 -10 6 0 11 5 11 10 0 6 -2 10 -4 10 -3 0
-8 -4 -11 -10z"/>
<path d="M1281 504 c0 -11 3 -14 6 -6 3 7 2 16 -1 19 -3 4 -6 -2 -5 -13z"/>
<path d="M1387 505 c-10 -7 -26 -11 -36 -8 -11 3 -28 0 -40 -6 -19 -11 -20
-17 -15 -174 2 -89 7 -170 10 -179 3 -10 -2 -18 -13 -21 -16 -4 -15 -5 2 -6
15 -1 17 -3 7 -10 -10 -6 -3 -10 22 -15 20 -4 34 -11 31 -16 -3 -5 8 -4 25 1
17 6 40 9 50 6 39 -10 55 66 21 97 -15 13 -20 14 -24 4 -3 -7 -6 19 -6 57 0
49 2 65 9 55 13 -19 12 -13 -1 30 -6 19 -10 63 -9 96 1 50 -2 63 -17 68 -15 6
-15 9 -3 16 8 5 12 11 10 14 -3 2 -13 -2 -23 -9z m7 -76 c1 -24 3 -97 4 -163
l2 -118 25 6 c23 6 25 3 25 -24 l0 -30 -63 0 -64 0 -2 176 c-1 97 -5 182 -7
189 -4 10 5 13 37 11 l42 -2 1 -45z"/>
<path d="M1436 468 c-3 -13 -5 -43 -4 -68 1 -39 2 -37 8 20 8 68 7 86 -4 48z"/>
<path d="M733 442 c-1 -22 0 -24 9 -8 6 10 6 22 2 26 -5 5 -10 -3 -11 -18z"/>
<path d="M1150 423 c0 -15 -3 -39 -7 -52 -4 -17 -2 -22 7 -19 12 4 17 18 23
72 1 10 -4 21 -10 23 -9 3 -13 -5 -13 -24z"/>
<path d="M1452 420 c0 -14 2 -19 5 -12 2 6 2 18 0 25 -3 6 -5 1 -5 -13z"/>
<path d="M1012 389 c-7 -11 -9 -25 -5 -32 4 -7 10 0 15 18 9 36 6 40 -10 14z"/>
<path d="M2155 359 c-4 -6 -5 -12 -2 -15 2 -3 7 2 10 11 7 17 1 20 -8 4z"/>
<path d="M1451 344 c0 -11 3 -14 6 -6 3 7 2 16 -1 19 -3 4 -6 -2 -5 -13z"/>
<path d="M1472 340 c0 -14 2 -19 5 -12 2 6 2 18 0 25 -3 6 -5 1 -5 -13z"/>
<path d="M1940 350 c0 -5 5 -10 10 -10 6 0 10 5 10 10 0 6 -4 10 -10 10 -5 0
-10 -4 -10 -10z"/>
<path d="M1960 316 c0 -9 5 -16 10 -16 6 0 10 4 10 9 0 6 -4 13 -10 16 -5 3
-10 -1 -10 -9z"/>
<path d="M1127 293 c-4 -8 -19 -97 -18 -108 4 -32 40 59 41 103 0 13 -16 17
-23 5z"/>
<path d="M1255 270 c3 -5 8 -10 11 -10 2 0 4 5 4 10 0 6 -5 10 -11 10 -5 0 -7
-4 -4 -10z"/>
<path d="M1641 264 c0 -11 3 -14 6 -6 3 7 2 16 -1 19 -3 4 -6 -2 -5 -13z"/>
<path d="M1662 260 c0 -14 2 -19 5 -12 2 6 2 18 0 25 -3 6 -5 1 -5 -13z"/>
<path d="M2018 261 c-10 -10 -18 -21 -18 -25 0 -9 49 27 50 37 0 12 -14 7 -32
-12z"/>
<path d="M695 250 c3 -5 8 -10 11 -10 2 0 4 5 4 10 0 6 -5 10 -11 10 -5 0 -7
-4 -4 -10z"/>
<path d="M1246 231 c-3 -5 1 -11 9 -14 9 -4 12 -1 8 9 -6 16 -10 17 -17 5z"/>
<path d="M981 193 c-1 -12 4 -25 9 -28 12 -7 12 2 0 30 -8 19 -9 19 -9 -2z"/>
<path d="M1494 192 c-6 -4 -11 -22 -11 -40 0 -25 3 -29 9 -18 5 9 6 21 3 27
-4 5 -1 16 5 24 14 16 11 19 -6 7z"/>
<path d="M1280 158 c0 -19 -2 -20 -11 -8 -8 12 -10 12 -7 1 2 -8 11 -15 19
-17 12 -1 15 5 11 22 -6 30 -12 31 -12 2z"/>
<path d="M1511 164 c0 -11 3 -14 6 -6 3 7 2 16 -1 19 -3 4 -6 -2 -5 -13z"/>
<path d="M900 166 c0 -2 7 -9 15 -16 13 -11 14 -10 9 4 -5 14 -24 23 -24 12z"/>
<path d="M1708 123 c6 -2 18 -2 25 0 6 3 1 5 -13 5 -14 0 -19 -2 -12 -5z"/>
<path d="M730 650 c0 -6 -18 -30 -40 -54 -42 -46 -48 -56 -27 -55 15 0 98 104
90 113 -10 9 -23 7 -23 -4z"/>
<path d="M1926 601 c-6 -8 33 -71 77 -125 13 -16 26 -25 30 -20 3 6 -16 34
-43 64 -48 54 -63 79 -37 64 8 -5 8 -2 -2 9 -15 19 -18 20 -25 8z"/>
<path d="M363 2168 c-18 -24 -24 -38 -16 -38 4 0 13 11 20 25 12 27 11 32 -4
13z"/>
<path d="M309 2113 c-1 -10 -1 -24 0 -32 2 -8 -3 -10 -11 -6 -11 7 -11 5 0 -6
11 -12 14 -12 22 1 6 9 6 16 0 18 -6 2 -6 11 0 23 7 13 7 19 0 19 -5 0 -11 -8
-11 -17z"/>
<path d="M425 2100 c10 -11 20 -20 22 -20 2 0 -1 9 -7 20 -6 11 -16 20 -22 20
-6 0 -3 -9 7 -20z"/>
<path d="M535 2010 c-3 -5 -1 -10 4 -10 6 0 11 5 11 10 0 6 -2 10 -4 10 -3 0
-8 -4 -11 -10z"/>
<path d="M280 1965 c-7 -9 -8 -15 -2 -15 5 0 12 7 16 15 3 8 4 15 2 15 -2 0
-9 -7 -16 -15z"/>
<path d="M345 1940 c3 -5 10 -10 16 -10 5 0 9 5 9 10 0 6 -7 10 -16 10 -8 0
-12 -4 -9 -10z"/>
<path d="M327 1869 c7 -7 15 -10 18 -7 3 3 -2 9 -12 12 -14 6 -15 5 -6 -5z"/>
<path d="M320 1842 c0 -8 124 -72 140 -72 6 0 10 5 10 10 0 6 -4 10 -10 10 -5
0 -38 14 -72 30 -68 33 -68 33 -68 22z"/>
<path d="M247 1773 c-3 -5 6 -9 20 -10 19 -1 22 1 12 8 -17 11 -26 11 -32 2z"/>
<path d="M132 1730 c0 -14 2 -19 5 -12 2 6 2 18 0 25 -3 6 -5 1 -5 -13z"/>
<path d="M195 1739 c-4 -6 -13 -8 -21 -5 -8 3 -11 0 -7 -10 3 -7 1 -14 -4 -14
-14 0 -33 -46 -34 -83 -1 -31 -1 -31 -9 -7 -4 14 -8 19 -9 11 -2 -32 24 -79
56 -101 41 -28 166 -39 156 -14 -3 9 -20 14 -43 14 -42 0 -121 25 -131 41 -9
14 14 114 31 134 15 18 31 19 97 2 33 -9 57 -10 65 -4 10 6 8 7 -4 3 -10 -3
-20 -1 -23 5 -8 12 -73 39 -96 39 -10 0 -21 -5 -24 -11z m35 -219 c8 -5 11
-10 5 -10 -5 0 -17 5 -25 10 -8 5 -10 10 -5 10 6 0 17 -5 25 -10z"/>
<path d="M125 1531 c4 -8 2 -17 -6 -22 -9 -6 -10 -9 -2 -9 19 0 27 21 13 33
-10 9 -11 9 -5 -2z"/>
<path d="M350 1450 c20 -13 43 -13 35 0 -3 6 -16 10 -28 10 -18 0 -19 -2 -7
-10z"/>
<path d="M190 1425 c-7 -8 -10 -21 -7 -29 3 -8 -1 -17 -9 -20 -8 -3 -14 -11
-13 -18 0 -10 2 -10 6 0 2 6 9 12 15 12 6 0 7 -7 4 -16 -3 -8 -2 -13 3 -10 17
11 20 -37 3 -50 -20 -15 -29 -10 -14 8 7 9 6 17 -4 26 -11 10 -14 10 -12 -5 3
-40 -3 -63 -17 -63 -7 0 -18 -7 -23 -16 -6 -11 -11 -13 -16 -5 -4 6 -12 11
-19 11 -7 0 -4 -7 5 -16 15 -16 20 -15 60 9 86 53 84 48 61 117 -11 33 -16 60
-12 60 4 0 26 -16 49 -35 23 -19 45 -35 49 -35 4 0 32 18 61 40 29 22 60 40
68 40 9 0 13 3 10 6 -11 10 -78 -8 -71 -19 4 -6 0 -8 -11 -4 -9 4 -14 3 -11
-2 3 -5 1 -12 -4 -15 -5 -3 -11 1 -15 9 -4 12 -10 13 -30 4 -20 -10 -30 -8
-59 10 -30 18 -36 19 -47 6z m126 -27 c-2 -14 -9 -18 -28 -18 -8 0 -5 7 6 15
24 18 25 18 22 3z"/>
<path d="M391 1360 l-20 -61 52 -37 52 -37 -67 -3 -67 -3 -17 -59 c-9 -33 -20
-58 -24 -55 -3 2 -13 29 -20 60 l-13 55 -69 0 c-44 0 -67 -4 -63 -10 3 -5 34
-10 68 -11 44 0 56 -3 42 -9 -17 -7 -17 -9 -2 -9 9 -1 17 -9 17 -18 0 -16 -2
-16 -10 -3 -8 11 -9 7 -4 -15 8 -36 14 -45 14 -21 0 9 5 14 10 11 6 -4 8 -11
4 -16 -7 -12 28 -41 36 -31 3 4 14 12 24 18 11 6 22 17 24 25 2 8 -3 5 -12 -6
-19 -24 -20 -19 -4 25 10 30 12 32 20 14 7 -15 8 -14 5 8 -5 33 11 41 36 20
13 -12 20 -13 29 -4 7 7 19 12 27 12 14 0 14 -2 1 -11 -13 -9 -13 -10 0 -6 10
2 15 17 16 40 1 33 -3 39 -32 53 -19 9 -34 23 -34 31 0 8 -4 11 -10 8 -5 -3
-1 15 10 40 22 52 24 65 11 65 -5 0 -18 -27 -30 -60z"/>
<path d="M446 1365 c8 -37 14 -45 14 -19 0 10 -5 26 -10 34 -8 11 -9 7 -4 -15z"/>
<path d="M416 1345 c-3 -8 -1 -15 4 -15 6 0 10 7 10 15 0 8 -2 15 -4 15 -2 0
-6 -7 -10 -15z"/>
<path d="M332 1310 c0 -14 2 -19 5 -12 2 6 2 18 0 25 -3 6 -5 1 -5 -13z"/>
<path d="M472 1310 c0 -14 2 -19 5 -12 2 6 2 18 0 25 -3 6 -5 1 -5 -13z"/>
<path d="M430 1310 c0 -5 5 -10 11 -10 5 0 7 5 4 10 -3 6 -8 10 -11 10 -2 0
-4 -4 -4 -10z"/>
<path d="M382 1150 c0 -14 2 -19 5 -12 2 6 2 18 0 25 -3 6 -5 1 -5 -13z"/>
<path d="M365 1070 c3 -5 11 -10 16 -10 6 0 7 5 4 10 -3 6 -11 10 -16 10 -6 0
-7 -4 -4 -10z"/>
<path d="M571 1054 c0 -11 3 -14 6 -6 3 7 2 16 -1 19 -3 4 -6 -2 -5 -13z"/>
<path d="M591 1044 c0 -11 3 -14 6 -6 3 7 2 16 -1 19 -3 4 -6 -2 -5 -13z"/>
<path d="M170 1000 c10 -6 11 -10 3 -10 -7 0 -13 -4 -13 -10 0 -5 7 -7 15 -4
21 8 19 34 -2 34 -15 0 -16 -2 -3 -10z"/>
<path d="M122 950 c0 -14 2 -19 5 -12 2 6 2 18 0 25 -3 6 -5 1 -5 -13z"/>
<path d="M276 684 c-9 -8 -16 -20 -16 -26 0 -6 1 -9 3 -7 1 2 11 14 21 27 22
25 16 30 -8 6z"/>
</g>
</svg>
